<svg
  xmlns="http://www.w3.org/2000/svg"
  width="16"
  height="17"
  viewBox="0 0 16 17"
  fill="none"
>
  <path
    d="M8.00041 2.72852C9.21906 2.72852 10.3429 2.75511 11.4435 2.80664C13.3027 2.89369 14.809 4.32074 15.0172 6.1264C15.2668 8.29146 15.2668 10.1421 15.0172 12.3072C14.809 14.1129 13.3027 15.5399 11.4435 15.627C10.3429 15.6785 9.21904 15.7051 8.00041 15.7051C6.78165 15.7051 5.65752 15.6785 4.55677 15.627C2.69763 15.5399 1.1913 14.1129 0.983113 12.3072C0.733496 10.1421 0.733491 8.29145 0.983113 6.1264C1.1913 4.32075 2.69761 2.89369 4.55677 2.80664C5.65752 2.7551 6.78163 2.72852 8.00041 2.72852ZM8.00041 3.87137C6.79889 3.87137 5.69265 3.89771 4.61035 3.94838C3.31105 4.00922 2.26277 5.00815 2.11872 6.25753C1.87915 8.33546 1.87916 10.0981 2.11872 12.1761C2.26276 13.4254 3.31103 14.4244 4.61035 14.4852C5.69262 14.5359 6.79887 14.5622 8.00041 14.5622C9.20193 14.5622 10.3083 14.5359 11.3905 14.4852C12.6897 14.4242 13.7374 13.4258 13.8815 12.1766V12.1761C14.1211 10.0981 14.1211 8.33548 13.8815 6.25753C13.7376 5.00825 12.6898 4.00933 11.3905 3.94838C10.3082 3.89771 9.20192 3.87138 8.00041 3.87137Z"
    fill="currentColor"
  />
  <path
    d="M8.00028 2.72852C9.21908 2.72852 10.3432 2.7551 11.4439 2.80664C13.3031 2.89369 14.8088 4.32079 15.017 6.12639C15.0455 6.37336 15.0709 6.61656 15.0929 6.85686C15.1075 7.01677 15.0544 7.17575 14.9462 7.29436C14.8379 7.41292 14.6848 7.48068 14.5243 7.48075H1.47684C1.31628 7.48075 1.16323 7.41294 1.05497 7.29436C0.9467 7.17572 0.892989 7.01682 0.907648 6.85686C0.929665 6.61665 0.955055 6.37345 0.983541 6.12639C1.19174 4.32076 2.69806 2.89369 4.5572 2.80664C5.65782 2.75511 6.78165 2.72852 8.00028 2.72852ZM8.00028 3.87137C6.79877 3.87137 5.69251 3.89771 4.61021 3.94838C3.31101 4.00931 2.26318 5.00821 2.11914 6.25753C2.11605 6.28434 2.11378 6.31119 2.11077 6.33789H13.8903C13.8873 6.31119 13.8851 6.28435 13.882 6.25753C13.7379 5.00813 12.6896 4.00922 11.3903 3.94838C10.3081 3.89771 9.20182 3.87137 8.00028 3.87137Z"
    fill="currentColor"
  />
  <path
    d="M4.5127 4.78683V1.8683C4.5127 1.55271 4.76853 1.29688 5.08412 1.29688C5.39972 1.29688 5.65555 1.55271 5.65555 1.8683V4.78683C5.65547 5.10235 5.39966 5.35826 5.08412 5.35826C4.76859 5.35826 4.51278 5.10235 4.5127 4.78683Z"
    fill="currentColor"
  />
  <path
    d="M10.3447 4.78683V1.8683C10.3447 1.55271 10.6006 1.29688 10.9162 1.29688C11.2317 1.29688 11.4876 1.55271 11.4876 1.8683V4.78683C11.4875 5.10235 11.2317 5.35826 10.9162 5.35826C10.6006 5.35826 10.3448 5.10235 10.3447 4.78683Z"
    fill="currentColor"
  />
</svg>
