<svg width="16" height="16" viewBox="0 0 16 16" fill="none" xmlns="http://www.w3.org/2000/svg">
<path fill-rule="evenodd" clip-rule="evenodd" d="M14.9232 4.96002C14.9119 4.99962 14.8228 5.18682 14.725 5.37602C13.4221 7.89712 12.0499 9.44255 9.95228 10.7514C9.17273 11.2378 8.89734 11.3711 8.4895 11.4594C8.2543 11.5103 7.74537 11.5103 7.51017 11.4594C7.10233 11.3711 6.82694 11.2378 6.04739 10.7514C3.93164 9.43125 2.51697 7.82707 1.23051 5.28923L1.06433 4.96141L1.06483 4.82871C1.06572 4.58959 1.17558 4.40773 1.3799 4.30715C1.5567 4.22011 1.7335 4.22335 1.90844 4.31683C2.02844 4.38095 2.09492 4.46802 2.24705 4.76029C2.73406 5.69592 3.16959 6.41429 3.60015 6.99202C4.5367 8.24871 5.57467 9.1564 7.07983 10.035C7.54665 10.3075 7.65542 10.344 7.99983 10.344C8.34425 10.344 8.45302 10.3075 8.91983 10.035C9.90695 9.45879 10.6194 8.92503 11.3255 8.23263C12.2137 7.36171 12.9419 6.32245 13.7363 4.79235C13.9042 4.46895 13.969 4.38216 14.0912 4.31683C14.3293 4.1896 14.6142 4.23783 14.7918 4.43543C14.9134 4.57063 14.9698 4.79571 14.9232 4.96002Z" fill="#62748E"/>
</svg>
