<svg width="16" height="16" viewBox="0 0 16 16" fill="none" xmlns="http://www.w3.org/2000/svg">
<path fill-rule="evenodd" clip-rule="evenodd" d="M11.088 0.545236C10.495 0.56666 9.70895 0.61658 9.3205 0.657476C9.13039 0.677492 9.03314 0.718596 8.92449 0.8249C8.88293 0.865524 8.82893 0.939524 8.80449 0.989332C8.76514 1.06943 8.76007 1.09746 8.76053 1.23189C8.761 1.36696 8.76621 1.39418 8.80735 1.47634C8.85833 1.57816 8.96913 1.69141 9.06625 1.74095C9.19041 1.80429 9.283 1.80948 9.69258 1.77605C11.0641 1.6641 12.5146 1.6504 13.8628 1.73669C14.0645 1.7496 14.2319 1.76245 14.2347 1.76527C14.2375 1.76807 14.2505 1.94621 14.2635 2.16112C14.3496 3.58002 14.3374 4.84922 14.2236 6.31189C14.1968 6.65671 14.1954 6.72436 14.2138 6.80224C14.2541 6.97344 14.3747 7.12084 14.5406 7.20162C14.6026 7.23184 14.643 7.23852 14.768 7.23914C14.9528 7.24005 15.029 7.2104 15.1599 7.08658C15.3056 6.94876 15.3258 6.88778 15.3608 6.47932C15.4451 5.49437 15.4811 4.29045 15.4563 3.28389C15.4327 2.32512 15.3649 1.24136 15.3181 1.07399C15.2626 0.8761 15.1125 0.729172 14.9157 0.680292C14.8229 0.657252 14.2227 0.606756 13.68 0.57634C12.8352 0.528964 11.8615 0.517284 11.088 0.545236ZM1.06119 8.77384C0.964661 8.80559 0.894757 8.8528 0.809797 8.94364C0.689621 9.0721 0.673381 9.12722 0.639301 9.52236C0.503061 11.1021 0.503045 12.9842 0.639253 14.5755C0.666085 14.8889 0.673477 14.9329 0.712805 15.0132C0.793029 15.1771 0.963637 15.3089 1.12801 15.3341C1.32804 15.3648 2.32898 15.4295 3.01601 15.4561C4.07879 15.4972 5.70724 15.4472 6.68549 15.3433C6.93777 15.3165 7.09527 15.2147 7.1933 15.015C7.23522 14.9297 7.23993 14.9043 7.23925 14.7679C7.23837 14.5909 7.20895 14.5129 7.09559 14.3868C6.94215 14.2161 6.81061 14.1834 6.41367 14.2172C5.04284 14.334 3.46049 14.3512 2.13471 14.2636C1.93433 14.2504 1.76807 14.2373 1.76527 14.2345C1.76249 14.2317 1.74953 14.0536 1.73649 13.8387C1.65033 12.4188 1.66289 11.1265 1.77685 9.68357C1.80978 9.26666 1.80549 9.19394 1.74028 9.06509C1.6957 8.977 1.55842 8.8454 1.46626 8.80237C1.36757 8.75631 1.15911 8.74164 1.06119 8.77384Z" fill="#62748E"/>
</svg>
