<svg width="12" height="12" viewBox="0 0 12 12" fill="none" xmlns="http://www.w3.org/2000/svg">
<g clip-path="url(#clip0_5681_14074)">
<path fill-rule="evenodd" clip-rule="evenodd" d="M8.11793 0.403471C7.95385 0.420523 7.71007 0.461287 7.588 0.492091C6.87518 0.671971 6.14733 1.07249 5.27993 1.76219C5.03505 1.95691 4.71201 2.23514 4.676 2.28235C4.60431 2.37634 4.5749 2.50281 4.59696 2.62216C4.62244 2.76004 4.70259 2.86443 4.83218 2.92852C4.90572 2.96489 4.9243 2.96897 5.01706 2.96912C5.10949 2.96925 5.12816 2.96525 5.19706 2.9306C5.24327 2.90735 5.34094 2.8339 5.44194 2.74643C6.49177 1.83729 7.36232 1.35629 8.11193 1.27119C8.28173 1.25192 8.56312 1.26352 8.71793 1.29617C9.15637 1.38866 9.55944 1.62693 9.96596 2.03392C10.3741 2.44255 10.6113 2.84368 10.7039 3.28213C10.7367 3.43699 10.7487 3.73298 10.7288 3.89574C10.6653 4.4161 10.4352 4.95248 9.99842 5.59813C9.80254 5.88769 9.568 6.19144 9.27284 6.53784C9.20361 6.61908 9.13148 6.71358 9.11254 6.74784C9.0811 6.80472 9.0781 6.82056 9.07802 6.93013C9.07795 7.03698 9.08157 7.05753 9.11108 7.11763C9.14828 7.19337 9.23494 7.28085 9.31144 7.31988C9.42176 7.37616 9.58004 7.37569 9.68927 7.31875C9.76161 7.28104 9.80786 7.23631 9.96027 7.05663C10.5274 6.38806 10.9068 5.83646 11.1782 5.28613C11.378 4.88107 11.4939 4.5426 11.5551 4.1856C11.7052 3.31062 11.4917 2.52934 10.8983 1.78213C10.7501 1.59555 10.376 1.22339 10.1999 1.08742C9.71296 0.711319 9.26297 0.506467 8.74793 0.426403C8.62717 0.407623 8.22044 0.392827 8.11793 0.403471ZM7.35937 4.10882C7.33155 4.1179 7.28565 4.13911 7.25737 4.15594C7.22908 4.17277 6.51961 4.87405 5.68075 5.71434C4.33484 7.06255 4.15251 7.24948 4.12961 7.30467C3.97946 7.66654 4.33192 8.02154 4.69257 7.87167C4.75147 7.84719 4.90963 7.69304 6.29143 6.31332C8.02137 4.58596 7.90204 4.71808 7.90183 4.5304C7.90177 4.47745 7.89497 4.41181 7.88674 4.38453C7.85548 4.28101 7.73479 4.15679 7.62893 4.11921C7.55768 4.09391 7.42111 4.08865 7.35937 4.10882ZM2.41327 4.64469C2.29142 4.66957 2.2312 4.71775 2.0396 4.94362C1.47249 5.61219 1.09303 6.1638 0.821623 6.71413C0.621871 7.11919 0.505951 7.45766 0.444739 7.81466C0.294691 8.68964 0.508219 9.47091 1.10162 10.2181C1.24978 10.4047 1.62388 10.7769 1.79993 10.9128C2.29093 11.292 2.73501 11.4932 3.26437 11.5761C3.46952 11.6082 3.87276 11.6054 4.09794 11.5703C5.00404 11.429 5.91704 10.9293 7.0885 9.93348C7.29959 9.75404 7.33754 9.7138 7.37391 9.63078C7.46793 9.41617 7.37953 9.1765 7.16769 9.07173C7.09416 9.03536 7.07557 9.03128 6.98281 9.03114C6.89038 9.031 6.87171 9.035 6.80281 9.06966C6.7566 9.0929 6.65893 9.16635 6.55794 9.25382C5.50855 10.1626 4.63769 10.6438 3.88793 10.7291C3.71996 10.7482 3.43796 10.7365 3.28194 10.7039C2.84534 10.6126 2.44184 10.3741 2.03391 9.96615C1.62619 9.55842 1.38862 9.15667 1.29593 8.71813C1.2632 8.56327 1.25121 8.26728 1.27107 8.10452C1.36276 7.35322 1.81471 6.5331 2.72703 5.46242C2.79626 5.38118 2.86839 5.28668 2.88733 5.25242C2.91877 5.19554 2.92177 5.1797 2.92185 5.07013C2.92192 4.96328 2.9183 4.94272 2.88879 4.88263C2.84841 4.8004 2.75679 4.71215 2.67255 4.67434C2.60026 4.64189 2.48917 4.6292 2.41327 4.64469Z" fill="#62748E"/>
</g>
<defs>
<clipPath id="clip0_5681_14074">
<rect width="12" height="12" fill="white"/>
</clipPath>
</defs>
</svg>
