<svg width="24" height="24" viewBox="0 0 24 24" fill="none" xmlns="http://www.w3.org/2000/svg">
<path fill-rule="evenodd" clip-rule="evenodd" d="M10.3329 1.22477C8.49757 1.35828 6.86248 1.82258 5.57435 2.57597C3.34259 3.88125 1.92911 6.00413 1.41681 8.82C1.34296 9.22596 1.29294 9.58716 1.2423 10.08C1.20045 10.4875 1.20049 12.3133 1.24237 12.72C1.37987 14.0549 1.60345 15.0361 2.00255 16.056C2.14969 16.432 2.503 17.1258 2.73265 17.4895C4.11827 19.6846 6.33025 21.0291 9.27549 21.4665C10.3224 21.622 11.8244 21.6518 12.9235 21.5389C15.0034 21.3254 16.7172 20.7001 18.1041 19.6489L18.2926 19.506L19.8801 21.0896C21.1476 22.3541 21.4916 22.6845 21.5872 22.7295C21.766 22.8136 22.0667 22.823 22.2595 22.7504C22.4591 22.6752 22.675 22.4593 22.7496 22.26C22.8229 22.0643 22.8142 21.7646 22.7301 21.588C22.6847 21.4927 22.3467 21.141 21.0891 19.8807L19.5053 18.2933L19.6483 18.1047C20.6996 16.7177 21.324 15.0064 21.5385 12.924C21.6508 11.8338 21.6207 10.3179 21.466 9.276C21.0287 6.33134 19.6832 4.11825 17.4876 2.73223C17.125 2.50339 16.431 2.14999 16.0555 2.00306C15.0708 1.61777 14.1077 1.39298 12.8628 1.25793C12.4556 1.21375 10.7853 1.19186 10.3329 1.22477ZM10.9435 2.9183C8.6308 3.01769 6.97115 3.54873 5.61549 4.62312C5.35333 4.83089 4.83037 5.35385 4.62261 5.616C3.64547 6.84895 3.11082 8.36301 2.9488 10.356C2.90687 10.8717 2.91321 12.061 2.96068 12.588C3.15661 14.7634 3.82917 16.4068 5.02696 17.637C5.55561 18.18 6.09558 18.5793 6.75707 18.9165C7.74133 19.4183 8.73796 19.6902 10.1395 19.8394C10.6221 19.8908 12.0675 19.8986 12.5395 19.8523C14.0012 19.709 14.9951 19.4456 16.0144 18.9313C18.1387 17.8596 19.4301 15.872 19.785 13.128C19.8668 12.4957 19.8824 12.2118 19.8811 11.376C19.8795 10.3191 19.8279 9.75835 19.6523 8.892C19.1442 6.38496 17.7288 4.58011 15.5395 3.64764C14.7332 3.30422 13.6623 3.05474 12.6115 2.96551C12.1977 2.93037 11.2721 2.90419 10.9435 2.9183Z" fill="currentColor"/>
</svg>
