  <svg
                
                  xmlns="http://www.w3.org/2000/svg"
                  width="16"
                  height="17"
                  viewBox="0 0 16 17"
                  fill="none"
                >
                  <path
                    fill-rule="evenodd"
                    clip-rule="evenodd"
                    d="M5.8323 2.10073C5.28166 2.14008 4.82962 2.25659 4.40798 2.4678C3.19077 3.07756 2.60733 4.35675 2.76973 6.05955C2.85379 6.94092 3.20882 7.68243 3.79002 8.19056C4.42784 8.74817 5.25942 9.00424 6.33598 8.97452C7.14122 8.95228 7.74077 8.78144 8.28379 8.41944C8.8948 8.01214 9.30613 7.41544 9.50459 6.64851C9.64245 6.1158 9.67074 5.34934 9.57443 4.75555C9.38877 3.6106 8.73336 2.7592 7.72798 2.35689C7.19488 2.14356 6.51622 2.05187 5.8323 2.10073ZM10.5269 3.13856C10.3583 3.16971 10.1951 3.29692 10.1153 3.45944C10.0262 3.64072 10.0541 3.88969 10.1815 4.05064C10.2447 4.13054 10.3688 4.22136 10.4469 4.24478C10.4783 4.25422 10.6264 4.26812 10.776 4.27568C11.1141 4.29276 11.337 4.32753 11.5452 4.39564C12.2062 4.61188 12.553 5.04065 12.6906 5.81155C12.7246 6.00251 12.7195 6.64108 12.6822 6.85155C12.6093 7.26289 12.4628 7.57312 12.2262 7.81702C11.9494 8.10228 11.5779 8.26392 11.0633 8.32286C10.7464 8.35916 10.2793 8.33542 9.99998 8.26883C9.88087 8.24041 9.71458 8.23633 9.63029 8.25976C9.59854 8.26857 9.52866 8.30417 9.47498 8.33888C9.25114 8.48355 9.15826 8.78366 9.26346 9.02235C9.35552 9.23121 9.47735 9.32361 9.74279 9.38585C10.0626 9.46084 10.2773 9.48235 10.704 9.48211C11.2365 9.4818 11.5513 9.43548 11.96 9.29732C12.9126 8.97523 13.5724 8.21427 13.7841 7.19352C13.8488 6.88144 13.864 6.70731 13.8631 6.29155C13.8621 5.85763 13.8407 5.65633 13.7598 5.31982C13.4704 4.11619 12.5691 3.33334 11.2789 3.16488C11.0528 3.13537 10.6252 3.1204 10.5269 3.13856ZM5.80798 3.25369C5.3936 3.29604 4.98384 3.42969 4.71999 3.60854C4.32698 3.87496 4.05755 4.31361 3.95246 4.85816C3.82094 5.53972 3.89586 6.29284 4.14542 6.79809C4.40922 7.33212 4.88603 7.65891 5.59198 7.78952C5.82405 7.83244 6.54458 7.83273 6.77598 7.79C7.42518 7.67011 7.84459 7.41598 8.1353 6.96636C8.37432 6.5967 8.48094 6.15177 8.4808 5.52473C8.48058 4.53155 8.1603 3.87718 7.49758 3.51596C7.3559 3.43875 7.09904 3.34715 6.91152 3.307C6.6103 3.24249 6.13995 3.21977 5.80798 3.25369ZM5.52798 9.71787C4.25582 9.81796 3.0328 10.1961 1.93475 10.8287C1.23611 11.2312 0.931056 11.5097 0.72 11.9374C0.400944 12.584 0.487488 13.3208 0.95552 13.9422C1.26758 14.3564 1.76696 14.6809 2.30853 14.8212C2.64939 14.9095 2.44333 14.9045 6.01598 14.9112C8.28734 14.9155 9.39202 14.9121 9.55043 14.9002C9.96131 14.8694 10.2684 14.785 10.6098 14.609C11.2037 14.3029 11.6172 13.8057 11.7879 13.1924C11.8281 13.048 11.8316 13.0127 11.8314 12.7475C11.8312 12.5043 11.8258 12.4395 11.7967 12.3301C11.6612 11.8197 11.3939 11.4552 10.9146 11.1267C9.75275 10.3307 8.27424 9.8236 6.79998 9.71547C6.54454 9.69673 5.77822 9.69817 5.52798 9.71787ZM12.4 10.4265C12.0786 10.5451 11.9125 10.9237 12.0576 11.2071C12.1494 11.3866 12.2397 11.4575 12.4982 11.5534C13.0214 11.7475 13.4562 11.9634 13.8786 12.2389C14.0745 12.3666 14.2035 12.4937 14.2651 12.6195C14.307 12.7054 14.312 12.7316 14.3117 12.8675C14.3115 13.011 14.308 13.0267 14.2496 13.1475C14.1594 13.3342 13.9803 13.5084 13.7748 13.6096C13.5292 13.7305 13.4312 13.7492 12.968 13.7631C12.748 13.7697 12.5458 13.7824 12.5186 13.7914C12.4466 13.8153 12.3522 13.8794 12.2856 13.9499C11.9745 14.2783 12.1609 14.8259 12.6085 14.8985C12.8245 14.9336 13.4016 14.9115 13.6597 14.8583C14.7339 14.637 15.5101 13.7511 15.467 12.7955C15.4525 12.4736 15.347 12.1552 15.1671 11.8902C15.075 11.7547 14.8677 11.5404 14.72 11.4281C14.2805 11.0939 13.4644 10.6712 12.8648 10.4672C12.6614 10.398 12.5126 10.3849 12.4 10.4265ZM5.85598 10.8456C4.53104 10.9121 3.22427 11.3317 2.17486 12.0277C1.84416 12.247 1.70333 12.4339 1.68486 12.6779C1.67976 12.7454 1.68397 12.8345 1.69458 12.8842C1.76074 13.1934 2.06603 13.5156 2.42354 13.6535C2.7065 13.7626 2.41144 13.7541 6.10398 13.7597C8.45379 13.7633 9.48778 13.7596 9.58183 13.7473C10.2007 13.6666 10.688 13.2231 10.688 12.7407C10.688 12.3916 10.5016 12.1867 9.83998 11.8085C8.94531 11.2971 7.96392 10.9848 6.91198 10.8766C6.67606 10.8523 6.07397 10.8347 5.85598 10.8456Z"
                    fill="#CC554D"
                  />
                </svg>