<svg width="504" height="337" viewBox="0 0 504 337" fill="none" xmlns="http://www.w3.org/2000/svg">
<rect y="245.942" width="504" height="12.1154" fill="#E2E8F1"/>
<path d="M323.165 256.226C322.689 257.45 321.737 261.213 321.737 266.47C321.737 271.727 323.34 275.823 324.142 277.213C321.697 280.612 321.286 284.143 321.386 285.484H319.583C319.683 284.143 319.272 280.612 316.827 277.213C317.629 275.823 319.232 271.727 319.232 266.47C319.232 261.213 318.28 257.45 317.804 256.226H323.165Z" fill="#E2E8F1"/>
<path d="M348.354 268.881C347.152 269.41 343.818 271.398 340.101 275.115C336.384 278.832 334.621 282.862 334.205 284.412C330.073 285.086 327.285 287.293 326.408 288.312L325.133 287.036C326.152 286.159 328.358 283.372 329.032 279.24C330.583 278.823 334.613 277.061 338.33 273.344C342.047 269.626 344.035 266.292 344.564 265.09L348.354 268.881Z" fill="#E2E8F1"/>
<path d="M357.22 295.641C355.995 295.165 352.233 294.213 346.976 294.213C341.719 294.213 337.623 295.817 336.232 296.618C332.834 294.173 329.303 293.763 327.962 293.863V292.059C329.303 292.159 332.834 291.749 336.232 289.304C337.623 290.105 341.719 291.708 346.976 291.708C352.233 291.708 355.995 290.757 357.22 290.281V295.641Z" fill="#E2E8F1"/>
<path d="M344.565 320.832C344.035 319.63 342.048 316.296 338.331 312.579C334.613 308.861 330.583 307.099 329.033 306.682C328.359 302.551 326.153 299.763 325.134 298.886L326.409 297.61C327.286 298.629 330.074 300.836 334.205 301.51C334.622 303.06 336.385 307.09 340.102 310.807C343.819 314.525 347.153 316.512 348.355 317.041L344.565 320.832Z" fill="#E2E8F1"/>
<path d="M323.165 329.696C322.689 328.472 321.737 324.709 321.737 319.452C321.737 314.195 323.34 310.099 324.142 308.708C321.697 305.31 321.286 301.779 321.386 300.438H319.583C319.683 301.779 319.272 305.31 316.827 308.708C317.629 310.099 319.232 314.195 319.232 319.452C319.232 324.709 318.28 328.472 317.804 329.696H323.165Z" fill="#E2E8F1"/>
<path d="M296.403 320.832C296.932 319.63 298.92 316.296 302.637 312.579C306.354 308.861 310.384 307.099 311.935 306.682C312.609 302.551 314.815 299.763 315.834 298.886L314.559 297.61C313.682 298.629 310.894 300.836 306.763 301.51C306.346 303.06 304.583 307.09 300.866 310.807C297.149 314.525 293.815 316.512 292.613 317.041L296.403 320.832Z" fill="#E2E8F1"/>
<path d="M283.749 295.641C284.973 295.165 288.736 294.213 293.993 294.213C299.25 294.213 303.346 295.817 304.737 296.618C308.135 294.173 311.666 293.763 313.007 293.863V292.059C311.666 292.159 308.135 291.749 304.737 289.304C303.346 290.105 299.25 291.708 293.993 291.708C288.736 291.708 284.973 290.757 283.749 290.281V295.641Z" fill="#E2E8F1"/>
<path d="M292.612 268.881C293.815 269.41 297.148 271.398 300.866 275.115C304.583 278.832 306.346 282.862 306.762 284.412C310.894 285.086 313.681 287.293 314.559 288.312L315.834 287.036C314.815 286.159 312.608 283.372 311.934 279.24C310.384 278.823 306.354 277.061 302.637 273.344C298.92 269.626 296.932 266.292 296.403 265.09L292.612 268.881Z" fill="#E2E8F1"/>
<circle cx="320.241" cy="292.798" r="8.12725" fill="#90A2B9"/>
<g filter="url(#filter0_d_3906_2343)">
<path d="M305.94 257.48L308.123 256.662L335.124 328.703L332.941 329.521L305.94 257.48Z" fill="#90A2B9"/>
<path d="M285.034 278.228L285.999 276.106L356.032 307.954L355.067 310.076L285.034 278.228Z" fill="#90A2B9"/>
<path d="M284.922 307.684L284.104 305.501L356.145 278.5L356.963 280.683L284.922 307.684Z" fill="#90A2B9"/>
<path d="M305.671 328.59L303.548 327.625L335.396 257.592L337.519 258.557L305.671 328.59Z" fill="#90A2B9"/>
</g>
<path d="M320.24 252C342.773 252 361.039 270.266 361.039 292.799C361.039 315.331 342.773 333.598 320.24 333.598C297.708 333.598 279.441 315.331 279.441 292.799C279.441 270.266 297.708 252 320.24 252ZM320.24 256.663C300.283 256.663 284.104 272.841 284.104 292.799C284.105 312.756 300.283 328.935 320.24 328.935C340.198 328.935 356.376 312.756 356.376 292.799C356.376 272.841 340.198 256.663 320.24 256.663Z" fill="#90A2B9"/>
<path d="M453.222 256.226C452.746 257.45 451.795 261.213 451.795 266.47C451.795 271.727 453.398 275.823 454.199 277.213C451.754 280.612 451.344 284.143 451.444 285.484H449.64C449.74 284.143 449.33 280.612 446.885 277.213C447.686 275.823 449.29 271.727 449.29 266.47C449.29 261.213 448.338 257.45 447.862 256.226H453.222Z" fill="#E2E8F1"/>
<path d="M478.413 268.881C477.211 269.41 473.877 271.398 470.16 275.115C466.442 278.832 464.68 282.862 464.263 284.412C460.132 285.086 457.344 287.293 456.467 288.312L455.191 287.036C456.21 286.159 458.417 283.372 459.091 279.24C460.641 278.823 464.671 277.061 468.388 273.344C472.106 269.626 474.093 266.292 474.622 265.09L478.413 268.881Z" fill="#E2E8F1"/>
<path d="M487.278 295.641C486.054 295.165 482.291 294.213 477.034 294.213C471.777 294.213 467.681 295.817 466.29 296.618C462.892 294.173 459.361 293.763 458.02 293.863V292.059C459.361 292.159 462.892 291.749 466.29 289.304C467.681 290.105 471.777 291.708 477.034 291.708C482.291 291.708 486.054 290.757 487.278 290.281V295.641Z" fill="#E2E8F1"/>
<path d="M474.623 320.832C474.094 319.63 472.106 316.296 468.389 312.579C464.672 308.861 460.642 307.099 459.092 306.682C458.418 302.551 456.211 299.763 455.192 298.886L456.467 297.61C457.345 298.629 460.132 300.836 464.264 301.51C464.68 303.06 466.443 307.09 470.16 310.807C473.878 314.525 477.211 316.512 478.414 317.041L474.623 320.832Z" fill="#E2E8F1"/>
<path d="M453.222 329.696C452.746 328.472 451.795 324.709 451.795 319.452C451.795 314.195 453.398 310.099 454.199 308.708C451.754 305.31 451.344 301.779 451.444 300.438H449.64C449.74 301.779 449.33 305.31 446.885 308.708C447.686 310.099 449.29 314.195 449.29 319.452C449.29 324.709 448.338 328.472 447.862 329.696H453.222Z" fill="#E2E8F1"/>
<path d="M426.462 320.832C426.991 319.63 428.979 316.296 432.696 312.579C436.413 308.861 440.443 307.099 441.993 306.682C442.667 302.551 444.874 299.763 445.893 298.886L444.617 297.61C443.74 298.629 440.953 300.836 436.821 301.51C436.404 303.06 434.642 307.09 430.925 310.807C427.207 314.525 423.874 316.512 422.671 317.041L426.462 320.832Z" fill="#E2E8F1"/>
<path d="M413.808 295.641C415.032 295.165 418.795 294.213 424.052 294.213C429.309 294.213 433.405 295.817 434.796 296.618C438.194 294.173 441.725 293.763 443.066 293.863V292.059C441.725 292.159 438.194 291.749 434.796 289.304C433.405 290.105 429.309 291.708 424.052 291.708C418.795 291.708 415.032 290.757 413.808 290.281V295.641Z" fill="#E2E8F1"/>
<path d="M422.671 268.881C423.873 269.41 427.207 271.398 430.924 275.115C434.642 278.832 436.404 282.862 436.821 284.412C440.952 285.086 443.74 287.293 444.617 288.312L445.893 287.036C444.874 286.159 442.667 283.372 441.993 279.24C440.443 278.823 436.413 277.061 432.696 273.344C428.978 269.626 426.991 266.292 426.462 265.09L422.671 268.881Z" fill="#E2E8F1"/>
<circle cx="450.299" cy="292.798" r="8.12725" fill="#90A2B9"/>
<g filter="url(#filter1_d_3906_2343)">
<path d="M436 257.48L438.183 256.662L465.184 328.703L463.001 329.521L436 257.48Z" fill="#90A2B9"/>
<path d="M415.093 278.228L416.059 276.106L486.092 307.954L485.127 310.076L415.093 278.228Z" fill="#90A2B9"/>
<path d="M414.981 307.684L414.163 305.501L486.204 278.5L487.022 280.683L414.981 307.684Z" fill="#90A2B9"/>
<path d="M435.73 328.59L433.608 327.625L465.456 257.592L467.578 258.557L435.73 328.59Z" fill="#90A2B9"/>
</g>
<path d="M450.299 252C472.831 252 491.098 270.266 491.098 292.799C491.098 315.331 472.831 333.598 450.299 333.598C427.766 333.598 409.5 315.331 409.5 292.799C409.5 270.266 427.766 252 450.299 252ZM450.299 256.663C430.341 256.663 414.163 272.841 414.163 292.799C414.163 312.756 430.341 328.935 450.299 328.935C470.256 328.935 486.434 312.756 486.435 292.799C486.435 272.841 470.256 256.663 450.299 256.663Z" fill="#90A2B9"/>
<path d="M193.135 256.226C192.659 257.45 191.708 261.213 191.708 266.47C191.708 271.727 193.311 275.823 194.112 277.213C191.668 280.612 191.257 284.143 191.357 285.484H189.553C189.654 284.143 189.243 280.612 186.798 277.213C187.599 275.823 189.203 271.727 189.203 266.47C189.203 261.213 188.251 257.45 187.775 256.226H193.135Z" fill="#E2E8F1"/>
<path d="M218.327 268.881C217.125 269.41 213.791 271.398 210.074 275.115C206.357 278.832 204.594 282.862 204.177 284.412C200.046 285.086 197.258 287.293 196.381 288.312L195.106 287.036C196.125 286.159 198.331 283.372 199.005 279.24C200.555 278.823 204.585 277.061 208.302 273.344C212.02 269.626 214.007 266.292 214.537 265.09L218.327 268.881Z" fill="#E2E8F1"/>
<path d="M227.191 295.641C225.967 295.165 222.204 294.213 216.947 294.213C211.69 294.213 207.594 295.817 206.204 296.618C202.805 294.173 199.274 293.763 197.933 293.863V292.059C199.274 292.159 202.805 291.749 206.204 289.304C207.594 290.105 211.69 291.708 216.947 291.708C222.204 291.708 225.967 290.757 227.191 290.281V295.641Z" fill="#E2E8F1"/>
<path d="M214.536 320.832C214.007 319.63 212.019 316.296 208.302 312.579C204.585 308.861 200.555 307.099 199.005 306.682C198.331 302.551 196.124 299.763 195.105 298.886L196.381 297.61C197.258 298.629 200.045 300.836 204.177 301.51C204.594 303.06 206.356 307.09 210.073 310.807C213.791 314.525 217.125 316.512 218.327 317.041L214.536 320.832Z" fill="#E2E8F1"/>
<path d="M193.135 329.696C192.659 328.472 191.708 324.709 191.708 319.452C191.708 314.195 193.311 310.099 194.112 308.708C191.668 305.31 191.257 301.779 191.357 300.438H189.553C189.654 301.779 189.243 305.31 186.798 308.708C187.599 310.099 189.203 314.195 189.203 319.452C189.203 324.709 188.251 328.472 187.775 329.696H193.135Z" fill="#E2E8F1"/>
<path d="M166.375 320.832C166.904 319.63 168.892 316.296 172.609 312.579C176.326 308.861 180.356 307.099 181.906 306.682C182.58 302.551 184.787 299.763 185.806 298.886L184.531 297.61C183.653 298.629 180.866 300.836 176.734 301.51C176.318 303.06 174.555 307.09 170.838 310.807C167.12 314.525 163.787 316.512 162.584 317.041L166.375 320.832Z" fill="#E2E8F1"/>
<path d="M153.721 295.641C154.945 295.165 158.708 294.213 163.965 294.213C169.222 294.213 173.318 295.817 174.709 296.618C178.107 294.173 181.638 293.763 182.979 293.863V292.059C181.638 292.159 178.107 291.749 174.709 289.304C173.318 290.105 169.222 291.708 163.965 291.708C158.708 291.708 154.945 290.757 153.721 290.281V295.641Z" fill="#E2E8F1"/>
<path d="M162.585 268.881C163.787 269.41 167.121 271.398 170.838 275.115C174.556 278.832 176.318 282.862 176.735 284.412C180.866 285.086 183.654 287.293 184.531 288.312L185.807 287.036C184.788 286.159 182.581 283.372 181.907 279.24C180.357 278.823 176.327 277.061 172.61 273.344C168.892 269.626 166.905 266.292 166.376 265.09L162.585 268.881Z" fill="#E2E8F1"/>
<circle cx="190.211" cy="292.798" r="8.12725" fill="#90A2B9"/>
<g filter="url(#filter2_d_3906_2343)">
<path d="M175.913 257.48L178.096 256.662L205.097 328.703L202.914 329.521L175.913 257.48Z" fill="#90A2B9"/>
<path d="M155.006 278.229L155.971 276.107L226.004 307.955L225.039 310.077L155.006 278.229Z" fill="#90A2B9"/>
<path d="M154.894 307.684L154.076 305.501L226.117 278.5L226.936 280.683L154.894 307.684Z" fill="#90A2B9"/>
<path d="M175.642 328.59L173.52 327.625L205.368 257.592L207.49 258.557L175.642 328.59Z" fill="#90A2B9"/>
</g>
<path d="M190.212 252C212.744 252 231.011 270.266 231.011 292.799C231.011 315.331 212.744 333.598 190.212 333.598C167.679 333.598 149.413 315.331 149.413 292.799C149.413 270.266 167.679 252 190.212 252ZM190.212 256.663C170.254 256.663 154.075 272.841 154.075 292.799C154.075 312.756 170.255 328.935 190.212 328.935C210.169 328.934 226.348 312.756 226.348 292.799C226.348 272.841 210.169 256.663 190.212 256.663Z" fill="#90A2B9"/>
<path d="M63.1071 256.226C62.6312 257.45 61.6793 261.213 61.6793 266.47C61.6793 271.727 63.2825 275.823 64.0841 277.213C61.6392 280.612 61.2284 284.143 61.3286 285.484H59.525C59.6252 284.143 59.2144 280.612 56.7695 277.213C57.5711 275.823 59.1743 271.727 59.1743 266.47C59.1743 261.213 58.2224 257.45 57.7465 256.226H63.1071Z" fill="#E2E8F1"/>
<path d="M88.2978 268.881C87.0955 269.41 83.7617 271.398 80.0445 275.115C76.3272 278.832 74.5646 282.862 74.1479 284.412C70.0163 285.086 67.2288 287.293 66.3515 288.312L65.0762 287.036C66.0952 286.159 68.3017 283.372 68.9757 279.24C70.526 278.823 74.5559 277.061 78.2732 273.344C81.9904 269.626 83.978 266.292 84.5072 265.09L88.2978 268.881Z" fill="#E2E8F1"/>
<path d="M97.1631 295.641C95.9388 295.165 92.176 294.213 86.919 294.213C81.662 294.213 77.5661 295.817 76.1752 296.618C72.7772 294.173 69.2459 293.763 67.905 293.863V292.059C69.2459 292.159 72.7772 291.749 76.1752 289.304C77.5661 290.105 81.662 291.708 86.919 291.708C92.176 291.708 95.9388 290.757 97.1631 290.281V295.641Z" fill="#E2E8F1"/>
<path d="M84.5079 320.832C83.9787 319.63 81.9911 316.296 78.2739 312.579C74.5566 308.861 70.5267 307.099 68.9764 306.682C68.3024 302.551 66.0959 299.763 65.0769 298.886L66.3522 297.61C67.2295 298.629 70.017 300.836 74.1486 301.51C74.5653 303.06 76.3279 307.09 80.0452 310.807C83.7624 314.525 87.0962 316.512 88.2985 317.041L84.5079 320.832Z" fill="#E2E8F1"/>
<path d="M63.1071 329.696C62.6312 328.472 61.6793 324.709 61.6793 319.452C61.6793 314.195 63.2825 310.099 64.0841 308.708C61.6392 305.31 61.2284 301.779 61.3286 300.438H59.525C59.6252 301.779 59.2144 305.31 56.7695 308.708C57.5711 310.099 59.1743 314.195 59.1743 319.452C59.1743 324.709 58.2224 328.472 57.7465 329.696H63.1071Z" fill="#E2E8F1"/>
<path d="M36.3466 320.832C36.8757 319.63 38.8634 316.296 42.5806 312.579C46.2979 308.861 50.3278 307.099 51.8781 306.682C52.5521 302.551 54.7586 299.763 55.7776 298.886L54.5023 297.61C53.625 298.629 50.8375 300.836 46.7059 301.51C46.2892 303.06 44.5266 307.09 40.8093 310.807C37.0921 314.525 33.7583 316.512 32.556 317.041L36.3466 320.832Z" fill="#E2E8F1"/>
<path d="M23.6924 295.641C24.9167 295.165 28.6795 294.213 33.9365 294.213C39.1934 294.213 43.2894 295.817 44.6803 296.618C48.0783 294.173 51.6096 293.763 52.9505 293.863V292.059C51.6096 292.159 48.0783 291.749 44.6803 289.304C43.2894 290.105 39.1934 291.708 33.9365 291.708C28.6795 291.708 24.9167 290.757 23.6924 290.281V295.641Z" fill="#E2E8F1"/>
<path d="M32.5558 268.881C33.758 269.41 37.0918 271.398 40.8091 275.115C44.5263 278.832 46.289 282.862 46.7056 284.412C50.8372 285.086 53.6247 287.293 54.502 288.312L55.7773 287.036C54.7583 286.159 52.5518 283.372 51.8778 279.24C50.3275 278.823 46.2976 277.061 42.5803 273.344C38.8631 269.626 36.8755 266.292 36.3463 265.09L32.5558 268.881Z" fill="#E2E8F1"/>
<circle cx="60.1839" cy="292.798" r="8.12725" fill="#90A2B9"/>
<g filter="url(#filter3_d_3906_2343)">
<path d="M45.8845 257.48L48.0676 256.662L75.0688 328.703L72.8857 329.521L45.8845 257.48Z" fill="#90A2B9"/>
<path d="M24.9783 278.229L25.9434 276.107L95.9768 307.955L95.0117 310.077L24.9783 278.229Z" fill="#90A2B9"/>
<path d="M24.8662 307.684L24.0479 305.501L96.089 278.5L96.9072 280.683L24.8662 307.684Z" fill="#90A2B9"/>
<path d="M45.6149 328.59L43.4927 327.625L75.3407 257.592L77.4629 258.557L45.6149 328.59Z" fill="#90A2B9"/>
</g>
<path d="M60.1836 252C82.7162 252 100.982 270.266 100.982 292.799C100.982 315.331 82.7161 333.598 60.1836 333.598C37.651 333.598 19.3848 315.331 19.3848 292.799C19.3848 270.266 37.651 252 60.1836 252ZM60.1836 256.663C40.2262 256.663 24.0469 272.841 24.0469 292.799C24.0469 312.756 40.2262 328.935 60.1836 328.935C80.1409 328.934 96.3193 312.756 96.3193 292.799C96.3193 272.841 80.1409 256.663 60.1836 256.663Z" fill="#90A2B9"/>
<path d="M60.3457 1.5H83.8262C113.65 1.5 137.826 25.6766 137.826 55.5V244.442H6.3457V55.5C6.3457 25.6766 30.5223 1.50001 60.3457 1.5Z" stroke="#E2E8F1" stroke-width="3"/>
<path d="M237.23 1.5H260.711C290.534 1.5 314.711 25.6766 314.711 55.5V244.442H183.23V55.5C183.23 25.6766 207.407 1.50001 237.23 1.5Z" stroke="#E2E8F1" stroke-width="3"/>
<path d="M414.115 1.5H437.596C467.419 1.5 491.596 25.6766 491.596 55.5V244.442H360.115V55.5C360.115 25.6766 384.292 1.50001 414.115 1.5Z" stroke="#E2E8F1" stroke-width="3"/>
<defs>
<filter id="filter0_d_3906_2343" x="277.104" y="255.662" width="80.8594" height="80.8594" filterUnits="userSpaceOnUse" color-interpolation-filters="sRGB">
<feFlood flood-opacity="0" result="BackgroundImageFix"/>
<feColorMatrix in="SourceAlpha" type="matrix" values="0 0 0 0 0 0 0 0 0 0 0 0 0 0 0 0 0 0 127 0" result="hardAlpha"/>
<feOffset dx="-3" dy="3"/>
<feGaussianBlur stdDeviation="2"/>
<feComposite in2="hardAlpha" operator="out"/>
<feColorMatrix type="matrix" values="0 0 0 0 0 0 0 0 0 0 0 0 0 0 0 0 0 0 0.25 0"/>
<feBlend mode="normal" in2="BackgroundImageFix" result="effect1_dropShadow_3906_2343"/>
<feBlend mode="normal" in="SourceGraphic" in2="effect1_dropShadow_3906_2343" result="shape"/>
</filter>
<filter id="filter1_d_3906_2343" x="407.163" y="255.662" width="80.8594" height="80.8594" filterUnits="userSpaceOnUse" color-interpolation-filters="sRGB">
<feFlood flood-opacity="0" result="BackgroundImageFix"/>
<feColorMatrix in="SourceAlpha" type="matrix" values="0 0 0 0 0 0 0 0 0 0 0 0 0 0 0 0 0 0 127 0" result="hardAlpha"/>
<feOffset dx="-3" dy="3"/>
<feGaussianBlur stdDeviation="2"/>
<feComposite in2="hardAlpha" operator="out"/>
<feColorMatrix type="matrix" values="0 0 0 0 0 0 0 0 0 0 0 0 0 0 0 0 0 0 0.25 0"/>
<feBlend mode="normal" in2="BackgroundImageFix" result="effect1_dropShadow_3906_2343"/>
<feBlend mode="normal" in="SourceGraphic" in2="effect1_dropShadow_3906_2343" result="shape"/>
</filter>
<filter id="filter2_d_3906_2343" x="147.076" y="255.662" width="80.8594" height="80.8594" filterUnits="userSpaceOnUse" color-interpolation-filters="sRGB">
<feFlood flood-opacity="0" result="BackgroundImageFix"/>
<feColorMatrix in="SourceAlpha" type="matrix" values="0 0 0 0 0 0 0 0 0 0 0 0 0 0 0 0 0 0 127 0" result="hardAlpha"/>
<feOffset dx="-3" dy="3"/>
<feGaussianBlur stdDeviation="2"/>
<feComposite in2="hardAlpha" operator="out"/>
<feColorMatrix type="matrix" values="0 0 0 0 0 0 0 0 0 0 0 0 0 0 0 0 0 0 0.25 0"/>
<feBlend mode="normal" in2="BackgroundImageFix" result="effect1_dropShadow_3906_2343"/>
<feBlend mode="normal" in="SourceGraphic" in2="effect1_dropShadow_3906_2343" result="shape"/>
</filter>
<filter id="filter3_d_3906_2343" x="17.0479" y="255.662" width="80.8594" height="80.8594" filterUnits="userSpaceOnUse" color-interpolation-filters="sRGB">
<feFlood flood-opacity="0" result="BackgroundImageFix"/>
<feColorMatrix in="SourceAlpha" type="matrix" values="0 0 0 0 0 0 0 0 0 0 0 0 0 0 0 0 0 0 127 0" result="hardAlpha"/>
<feOffset dx="-3" dy="3"/>
<feGaussianBlur stdDeviation="2"/>
<feComposite in2="hardAlpha" operator="out"/>
<feColorMatrix type="matrix" values="0 0 0 0 0 0 0 0 0 0 0 0 0 0 0 0 0 0 0.25 0"/>
<feBlend mode="normal" in2="BackgroundImageFix" result="effect1_dropShadow_3906_2343"/>
<feBlend mode="normal" in="SourceGraphic" in2="effect1_dropShadow_3906_2343" result="shape"/>
</filter>
</defs>
</svg>
