<svg width="20" height="21" viewBox="0 0 20 21" fill="none" xmlns="http://www.w3.org/2000/svg">
<g clip-path="url(#clip0_3872_120)">
<path d="M10.0005 1.39941C12.3022 1.39941 14.6588 2.06768 16.3398 3.47182C18.2346 5.05454 19.1894 7.59954 19.3218 10.1236C19.4542 12.6485 18.7723 15.2935 17.2145 17.1228C15.5077 19.1271 12.7102 20.0727 10.0005 20.0727C7.29078 20.0726 4.49325 19.1271 2.78648 17.1228C1.22881 15.2935 0.546788 12.6484 0.679199 10.1236C0.811568 7.59962 1.76654 5.05456 3.6612 3.47182C5.34218 2.06772 7.69886 1.39945 10.0005 1.39941ZM10.0005 2.82799C7.94248 2.82802 5.93893 3.43082 4.57708 4.56836C3.0749 5.82328 2.22411 7.94071 2.10568 10.1982C1.98731 12.4552 2.60988 14.7112 3.87465 16.1964C5.23223 17.7906 7.57245 18.6441 10.0005 18.6441C12.4286 18.6441 14.7694 17.7907 16.127 16.1964C17.3918 14.7112 18.0137 12.4551 17.8953 10.1982C17.7769 7.94062 16.9262 5.82326 15.4239 4.56836C14.062 3.43079 12.0586 2.82799 10.0005 2.82799Z" fill="white"/>
<path d="M9.60728 14.4251V11.1299C9.60729 10.8129 9.36629 10.5523 9.05762 10.5209L8.99484 10.5174H8.33636C7.94187 10.5174 7.62207 10.1976 7.62207 9.80315C7.62207 9.40866 7.94187 9.08887 8.33636 9.08887H8.99484L9.2034 9.09933C10.2326 9.20377 11.0359 10.0731 11.0359 11.1299V14.4251C11.0359 14.8195 10.716 15.1393 10.3216 15.1394C9.92708 15.1394 9.60728 14.8196 9.60728 14.4251Z" fill="white"/>
<path d="M8.16512 15.0703C9.64558 14.6589 11.0178 14.6588 12.4983 15.0703C12.8783 15.176 13.1005 15.5699 12.9949 15.9499C12.8893 16.3299 12.496 16.5527 12.116 16.4473C10.8857 16.1053 9.77766 16.1053 8.54737 16.4473C8.16736 16.5528 7.7734 16.3299 7.66777 15.9499C7.56231 15.5699 7.78513 15.1759 8.16512 15.0703Z" fill="white"/>
<path d="M9.62695 5.1582V4.72991C9.62695 4.33542 9.94675 4.01562 10.3412 4.01562C10.7357 4.01562 11.0555 4.33542 11.0555 4.72991V5.1582C11.0555 5.55264 10.7357 5.87249 10.3412 5.87249C9.94679 5.87249 9.62702 5.55264 9.62695 5.1582Z" fill="white"/>
</g>
<defs>
<clipPath id="clip0_3872_120">
<rect width="20" height="20" fill="white" transform="translate(0 0.736328)"/>
</clipPath>
</defs>
</svg>
