<svg width="20" height="20" viewBox="0 0 20 20" fill="none" xmlns="http://www.w3.org/2000/svg">
<g clip-path="url(#clip0_3872_83)">
<path d="M17.5765 10.0004C17.5765 8.56267 17.4525 7.14441 17.3023 5.74051C17.1337 4.16427 15.8607 2.8892 14.2819 2.71317C12.8694 2.55572 11.4446 2.4237 10.0004 2.42369C8.55628 2.42369 7.13144 2.55572 5.71889 2.71317C4.14016 2.88914 2.86647 4.16421 2.69782 5.74051C2.54762 7.1444 2.42369 8.56268 2.42369 10.0004C2.4237 11.4381 2.54763 12.8565 2.69782 14.2603C2.8666 15.8366 4.14027 17.111 5.71889 17.287C7.13146 17.4444 8.55627 17.5765 10.0004 17.5765C11.4446 17.5764 12.8694 17.4444 14.2819 17.287C15.8605 17.1109 17.1336 15.8365 17.3023 14.2603C17.4525 12.8565 17.5764 11.4381 17.5765 10.0004ZM19.005 10.0004C19.005 11.5157 18.8742 12.9942 18.7225 14.4117C18.4823 16.6575 16.6818 18.4572 14.4403 18.7072C13.0155 18.866 11.5266 19.005 10.0004 19.005C8.47429 19.005 6.9854 18.866 5.56055 18.7072C3.31897 18.4573 1.5179 16.6576 1.27762 14.4117C1.12597 12.9942 0.995129 11.5157 0.995117 10.0004C0.995117 8.48493 1.12595 7.00607 1.27762 5.58845C1.5179 3.34262 3.31897 1.54352 5.56055 1.29367C6.98542 1.13485 8.47428 0.995117 10.0004 0.995117C11.5266 0.995129 13.0155 1.13484 14.4403 1.29367C16.6818 1.54362 18.4823 3.3427 18.7225 5.58845C18.8742 7.00608 19.005 8.48492 19.005 10.0004Z" fill="white"/>
<path d="M8.33482 4.77734C8.72923 4.77744 9.04911 5.0972 9.04911 5.49163C9.04911 5.88606 8.72923 6.20582 8.33482 6.20592H6.02874C5.63425 6.20592 5.31445 5.88612 5.31445 5.49163C5.31445 5.09714 5.63425 4.77734 6.02874 4.77734H8.33482Z" fill="white"/>
<path d="M10.0006 8.32129C10.395 8.32135 10.7148 8.64113 10.7148 9.03557C10.7148 9.43002 10.395 9.7498 10.0006 9.74986H6.02874C5.63425 9.74986 5.31445 9.43006 5.31445 9.03557C5.31445 8.64109 5.63425 8.32129 6.02874 8.32129H10.0006Z" fill="white"/>
<path d="M13.9084 10.5979C14.0027 10.2152 14.389 9.98148 14.7719 10.0755C15.155 10.1696 15.3891 10.556 15.2951 10.939L14.6017 10.7688L15.2951 10.9397V10.9411C15.2949 10.9419 15.2947 10.9428 15.2944 10.9439C15.2938 10.9462 15.2932 10.9493 15.2923 10.953C15.2905 10.9602 15.2878 10.97 15.2846 10.9823C15.278 11.0074 15.2684 11.0433 15.256 11.0876C15.2312 11.1761 15.1945 11.3008 15.1458 11.4503C15.049 11.7479 14.9017 12.1531 14.7015 12.5734C14.5033 12.9894 14.2409 13.4466 13.9049 13.8317C13.5716 14.2136 13.1199 14.5769 12.5384 14.7009C11.9855 14.8187 11.5183 14.6732 11.1454 14.4435C10.8036 14.2328 10.514 13.9325 10.3028 13.718C10.0616 13.4731 9.89956 13.316 9.74053 13.2214C9.61582 13.1472 9.53034 13.133 9.41826 13.1614C9.28328 13.1956 9.11073 13.2974 8.91115 13.499C8.71562 13.6966 8.53205 13.9523 8.37055 14.221C8.21082 14.4868 8.08342 14.747 7.99597 14.9422C7.95257 15.0392 7.9199 15.1186 7.89831 15.1724C7.8876 15.1991 7.87954 15.2195 7.8746 15.2324C7.87214 15.2388 7.87068 15.2438 7.86971 15.2464L7.86832 15.2471L7.86902 15.2478C7.7335 15.6182 7.32293 15.8088 6.95244 15.6733C6.58217 15.5377 6.39165 15.1277 6.52694 14.7574V14.7567H6.52764V14.7553C6.52786 14.7547 6.52805 14.754 6.52834 14.7532C6.52901 14.7514 6.53008 14.749 6.53113 14.7462C6.5333 14.7404 6.53645 14.7323 6.54019 14.7225C6.54776 14.7027 6.55843 14.6747 6.57228 14.6402C6.59995 14.5713 6.64028 14.4745 6.69226 14.3584C6.79566 14.1275 6.94903 13.8134 7.14636 13.4851C7.34206 13.1595 7.59274 12.8005 7.89622 12.4939C8.19558 12.1914 8.58689 11.8985 9.0681 11.7768L9.17064 11.7538C9.67732 11.6542 10.1142 11.7815 10.4709 11.9937C10.8171 12.1997 11.1086 12.4998 11.3212 12.7157C11.5635 12.9617 11.7284 13.1252 11.8945 13.2277C12.0298 13.311 12.125 13.3283 12.2405 13.3037C12.4071 13.2682 12.6061 13.1469 12.8279 12.8928C13.0467 12.642 13.2439 12.311 13.4117 11.9588C13.5775 11.6107 13.7028 11.2669 13.787 11.0081C13.8288 10.8796 13.8603 10.774 13.8805 10.7019C13.8905 10.6661 13.8974 10.6387 13.9021 10.6209C13.9044 10.6121 13.906 10.6052 13.907 10.6014C13.9074 10.5996 13.9082 10.5985 13.9084 10.5979Z" fill="white"/>
</g>
<defs>
<clipPath id="clip0_3872_83">
<rect width="20" height="20" fill="white"/>
</clipPath>
</defs>
</svg>
