<svg width="20" height="21" viewBox="0 0 20 21" fill="none" xmlns="http://www.w3.org/2000/svg">
<path fill-rule="evenodd" clip-rule="evenodd" d="M4.5766 1.76623C3.89286 1.86385 3.34674 2.12097 2.91756 2.54731C2.36102 3.10017 2.09822 3.82135 2.09804 4.79619C2.09788 5.69843 2.32338 6.37051 2.81386 6.92969L2.92218 7.05317L2.79996 7.13617C2.28224 7.48775 1.81056 8.04521 1.49994 8.67257C1.16742 9.34423 0.984542 10.1596 1.00326 10.8871C1.00946 11.1278 1.01414 11.1545 1.06922 11.2632C1.13628 11.3955 1.27522 11.5306 1.41532 11.5996L1.50994 11.6462H5.14994H8.78994L8.90676 11.587C9.056 11.5114 9.20418 11.3506 9.25852 11.2054C9.33676 10.9963 9.30514 10.3456 9.19032 9.80177C8.95424 8.68367 8.35258 7.73259 7.50546 7.13843L7.381 7.05113L7.48726 6.92867C7.9296 6.41881 8.15032 5.84151 8.19934 5.06619C8.24646 4.32101 8.1068 3.60985 7.81444 3.10619C7.40276 2.39699 6.73022 1.94435 5.84994 1.78399C5.60318 1.73903 4.84144 1.72841 4.5766 1.76623ZM11.8464 2.56343C11.6523 2.62771 11.4706 2.80191 11.3995 2.99185C11.3534 3.11525 11.3435 3.33271 11.3786 3.45287C11.4339 3.64187 11.6252 3.84533 11.8141 3.91601C11.9137 3.95329 12.0073 3.96123 12.6481 3.98675C14.3328 4.05385 14.4624 4.06867 14.8347 4.23705C15.2124 4.40785 15.6287 4.82461 15.8 5.20345C15.9525 5.54057 15.9843 5.78215 16.0307 6.95619C16.0452 7.32435 16.0644 7.45061 16.1235 7.56911C16.1856 7.69337 16.3307 7.83367 16.4599 7.89447C16.5541 7.93875 16.5973 7.94619 16.7599 7.94619C16.9242 7.94619 16.9654 7.93893 17.0643 7.89257C17.1838 7.83661 17.3397 7.69327 17.3927 7.59083C17.4705 7.44045 17.4845 7.33859 17.4706 7.02687C17.4089 5.64563 17.3792 5.38939 17.2285 4.93677C16.8906 3.92215 16.0399 3.09471 15.004 2.77311C14.6494 2.66299 14.3789 2.62987 13.4799 2.58649C12.4897 2.53867 11.9444 2.53099 11.8464 2.56343ZM4.87994 3.17635C4.3178 3.23099 3.92524 3.45405 3.72278 3.83389C3.52418 4.20649 3.46548 4.90391 3.59128 5.39619C3.76518 6.07669 4.28372 6.41595 5.14994 6.41595C6.1318 6.41595 6.6517 5.99621 6.75922 5.11671C6.81526 4.65839 6.7568 4.21587 6.59534 3.87619C6.5323 3.74357 6.48324 3.67535 6.37224 3.56591C6.13798 3.33499 5.84836 3.21867 5.40238 3.17637C5.17086 3.15441 5.1058 3.15441 4.87994 3.17635ZM4.75994 7.87681C4.09532 7.98649 3.72364 8.16909 3.29876 8.59467C3.06668 8.82711 2.90512 9.05547 2.76812 9.34467C2.64442 9.60581 2.5011 10.0587 2.50024 10.1912L2.49994 10.2362H5.14994H7.79994V10.1884C7.79994 10.1109 7.70468 9.76695 7.6287 9.57023C7.47018 9.15977 7.2544 8.83067 6.95604 8.54431C6.60114 8.20369 6.19412 7.99483 5.70916 7.90447C5.5027 7.86601 4.92702 7.84923 4.75994 7.87681ZM14.2999 9.84635C13.2145 9.99233 12.4178 10.5749 12.0302 11.5062C11.8497 11.9401 11.7633 12.557 11.8006 13.1462C11.8499 13.9245 12.069 14.4974 12.5133 15.0094L12.6202 15.1327L12.4651 15.2417C11.8938 15.6434 11.3996 16.2658 11.1029 16.9574C10.8422 17.5649 10.6999 18.2509 10.6999 18.9003C10.6999 19.1326 10.7066 19.1925 10.7432 19.2904C10.8029 19.4503 10.9859 19.6332 11.1457 19.693L11.2614 19.7362H14.8499H18.4384L18.5542 19.693C18.7155 19.6327 18.8966 19.4507 18.9589 19.2862C19.0021 19.1722 19.0038 19.1473 18.9934 18.7862C18.95 17.2847 18.2716 15.9467 17.1743 15.1986L17.0788 15.1335L17.2029 14.9898C17.6812 14.4363 17.9028 13.7675 17.9026 12.8783C17.9023 11.9251 17.6538 11.223 17.1205 10.669C16.6659 10.1966 16.0882 9.92949 15.3205 9.83667C15.0943 9.80933 14.5359 9.81463 14.2999 9.84635ZM14.6699 11.2495C14.3468 11.2692 14.0577 11.3501 13.8339 11.4836C13.4556 11.7092 13.2578 12.1168 13.2262 12.7362C13.1975 13.299 13.3365 13.7961 13.5998 14.0721C13.8598 14.3447 14.193 14.4685 14.7246 14.4901C15.8567 14.5359 16.4125 14.0662 16.4725 13.0128C16.4872 12.7541 16.4582 12.4518 16.3976 12.232C16.29 11.8415 16.0877 11.588 15.7576 11.4297C15.6544 11.3802 15.5089 11.325 15.4342 11.3069C15.3079 11.2762 14.9005 11.2327 14.8099 11.2401C14.7879 11.2419 14.7249 11.2462 14.6699 11.2495ZM3.00536 14.027C2.8061 14.0807 2.63958 14.227 2.54264 14.4338C2.49378 14.538 2.4902 14.5641 2.49348 14.7933C2.50518 15.6128 2.60314 16.1162 2.852 16.6362C3.2775 17.5252 4.02004 18.1622 4.9622 18.4465C5.32196 18.555 5.56108 18.5826 6.50994 18.625C7.80886 18.683 7.79978 18.6828 7.92828 18.6492C8.13606 18.5948 8.3123 18.4442 8.40638 18.2404C8.46896 18.1049 8.46878 17.8071 8.40604 17.6712C8.34068 17.5296 8.18036 17.3708 8.03848 17.3072C7.92636 17.2568 7.88982 17.2519 7.50404 17.2347C6.3626 17.1838 5.79504 17.1531 5.64994 17.1343C5.458 17.1094 5.18172 17.0203 4.99954 16.9246C4.61698 16.7236 4.25052 16.316 4.09202 15.9154C3.98726 15.6506 3.9545 15.4499 3.92894 14.9162C3.90822 14.484 3.86432 14.3571 3.67564 14.1834C3.57058 14.0868 3.531 14.0637 3.40386 14.0251C3.28688 13.9896 3.14158 13.9903 3.00536 14.027ZM14.4199 15.9659C13.8218 16.0551 13.4146 16.2582 12.9988 16.6747C12.7081 16.9658 12.5256 17.2505 12.368 17.6585C12.2947 17.8483 12.1999 18.1922 12.1999 18.2684V18.3162H14.8499C17.4583 18.3162 17.4999 18.3156 17.4999 18.2774C17.4999 18.1504 17.3568 17.6909 17.2387 17.4386C17.0432 17.021 16.7007 16.6081 16.3546 16.3727C16.1853 16.2575 15.8556 16.1046 15.6499 16.0457C15.2836 15.9409 14.7989 15.9094 14.4199 15.9659Z" fill="white"/>
</svg>
