<svg width="50" height="50" viewBox="0 0 50 50" fill="none" xmlns="http://www.w3.org/2000/svg">
<path fill-rule="evenodd" clip-rule="evenodd" d="M27.475 1.6994C25.8925 1.759 24.8512 1.83435 24.65 1.9039C24.3535 2.00635 23.9613 2.29525 23.776 2.54765C23.4692 2.96565 23.4367 3.1224 23.2939 4.87405C23.2609 5.2789 23.2238 7.41885 23.2059 9.94905L23.175 14.324L23.05 14.3376C22.6265 14.3836 21.6756 14.5844 21.075 14.7547C16.4624 16.0629 13.2996 19.5833 12.7023 24.0741C12.6567 24.4167 12.5016 26.4042 12.5004 26.6615C12.5 26.7387 12.4439 26.749 12.0253 26.749C11.2397 26.749 7.71386 26.894 7.13766 26.95C5.29646 27.1288 3.64256 28.2361 2.73271 29.899C2.32631 30.6418 2.14796 31.5083 1.87631 34.0595C1.59331 36.7172 1.59331 38.181 1.87631 40.8386C2.15896 43.493 2.33401 44.3039 2.80026 45.1188C3.44911 46.2529 4.52986 47.1745 5.74416 47.6293C6.63041 47.9613 6.91836 47.9863 11.425 48.1223C16.9718 48.2898 19.0421 48.3199 25 48.3199C30.9578 48.3199 33.0281 48.2898 38.575 48.1223C41.9598 48.0202 42.9587 47.9688 43.4214 47.8732C45.3544 47.474 47.0037 46.0258 47.5977 44.2066C47.9685 43.0706 48.3981 38.7863 48.3329 36.8741C48.2595 34.7202 47.8802 31.548 47.5922 30.6787C47.1429 29.3229 46.117 28.1654 44.775 27.5001C44.1457 27.1882 43.5495 27.0168 42.8623 26.95C42.295 26.8948 38.7651 26.749 37.9981 26.749C37.6811 26.749 37.5409 26.7304 37.5268 26.6865C37.5158 26.6522 37.4713 26.1021 37.428 25.4643C37.2876 23.3973 36.9953 22.17 36.299 20.724C34.9546 17.9321 32.3964 15.8049 29.2293 14.8458C28.5085 14.6275 27.2436 14.349 26.9728 14.349H26.8V13.4707V12.5923L26.911 12.6275C27.128 12.6964 31.7291 12.6618 32.9779 12.5818C34.3811 12.492 34.5907 12.4373 35.0146 12.0498C35.5332 11.5759 35.6274 11.1835 35.7535 8.97405C35.8471 7.33395 35.7495 4.25385 35.5727 3.2714C35.4727 2.7157 34.9973 2.14915 34.4623 1.9482C34.2281 1.8602 33.9671 1.82785 33.05 1.7731C31.5561 1.68395 28.8396 1.64805 27.475 1.6994ZM27.3183 5.283L26.8616 5.30265L26.8307 6.43835C26.8137 7.063 26.8168 7.9003 26.8374 8.29905L26.875 9.02405L27.6 9.0647C28.4083 9.11 32.0882 9.07745 32.1412 9.0245C32.1881 8.97755 32.1839 5.3663 32.1368 5.3192C32.0967 5.2791 28.105 5.2491 27.3183 5.283ZM23.65 17.8697C21.8853 18.1112 20.3397 18.7137 19.1008 19.6428C18.6235 20.0009 17.9449 20.6752 17.6169 21.1176C16.9206 22.0566 16.4122 23.3456 16.2538 24.574C16.0694 26.0038 16.05 27.0898 16.05 35.9521V44.6354L16.5625 44.6666C16.8443 44.6838 18.4531 44.7128 20.1375 44.7311L23.2 44.7644V41.9135C23.2 38.9896 23.216 38.7041 23.4016 38.3206C23.5448 38.0248 23.9299 37.6539 24.25 37.5033C24.4854 37.3926 24.5933 37.3741 25 37.3741C25.4067 37.3741 25.5145 37.3926 25.75 37.5033C26.2571 37.7418 26.6447 38.2439 26.7499 38.7988C26.7797 38.9556 26.8 40.2197 26.8 41.9135V44.7644L29.8625 44.7311C31.5469 44.7128 33.1556 44.6838 33.4375 44.6666L33.95 44.6354V35.8518C33.95 28.4786 33.9377 26.8881 33.8733 25.9461C33.7629 24.3315 33.6225 23.597 33.2432 22.649C32.2789 20.2397 29.8933 18.4935 26.8128 17.9423C26.0712 17.8095 24.3738 17.7706 23.65 17.8697ZM24.1 20.6722C24.0587 20.682 23.8562 20.7173 23.65 20.7507C21.7286 21.0617 20.1742 22.3767 19.5782 24.1954C19.3508 24.8894 19.2797 25.4023 19.2797 26.349C19.2797 27.2958 19.3508 27.8087 19.5782 28.5027C20.0853 30.0501 21.2775 31.2387 22.825 31.7397C23.5786 31.9837 23.8874 32.024 25 32.024C25.6722 32.024 26.1454 32.0002 26.375 31.9547C28.6808 31.498 30.2196 29.9422 30.6334 27.649C30.75 27.0027 30.75 25.6954 30.6334 25.049C30.2277 22.8006 28.7732 21.2893 26.5162 20.7706C26.2037 20.6989 24.3128 20.6218 24.1 20.6722ZM24.4 24.2575C23.2752 24.4172 22.8071 25.1079 22.8636 26.524C22.8946 27.3002 23.0062 27.6203 23.3692 27.9741C23.6721 28.2692 23.9339 28.3754 24.555 28.455C25.6386 28.594 26.5807 28.2664 26.9046 27.6381C27.2292 27.0084 27.2292 25.6897 26.9046 25.06C26.5636 24.3985 25.5943 24.0879 24.4 24.2575ZM11.725 30.3334C11.5325 30.3415 10.4973 30.3827 9.42466 30.4249C8.18251 30.4738 7.38101 30.5263 7.21716 30.5695C6.60576 30.7308 6.04916 31.2031 5.85311 31.7271C5.60591 32.3878 5.24941 35.7826 5.25061 37.4646C5.25141 38.6625 5.39016 40.3057 5.65451 42.2491C5.77246 43.116 5.91276 43.4571 6.30086 43.8201C6.71211 44.2048 7.07696 44.3452 7.80741 44.4002C8.44701 44.4484 11.3626 44.5501 12.0875 44.5494L12.5 44.549V37.424V30.2991L12.2875 30.3088C12.1706 30.3142 11.9175 30.3253 11.725 30.3334ZM37.5 37.4226V44.549L37.9125 44.5494C38.6373 44.5501 41.5529 44.4484 42.1925 44.4002C42.911 44.3461 43.2803 44.2075 43.675 43.8437C44.148 43.4076 44.2358 43.1498 44.4217 41.649C44.8256 38.3881 44.8437 36.9979 44.5203 34.0991C44.3488 32.5617 44.2687 32.0528 44.1468 31.7271C43.95 31.2011 43.3548 30.704 42.7459 30.5571C42.6199 30.5267 41.6524 30.4684 40.5959 30.4274C39.5394 30.3865 38.4106 30.3402 38.0875 30.3246L37.5 30.2963V37.4226Z" fill="#CC554D"/>
</svg>
