<svg width="48" height="48" viewBox="0 0 48 48" fill="none" xmlns="http://www.w3.org/2000/svg">
<path fill-rule="evenodd" clip-rule="evenodd" d="M26.3761 1.63229C24.8569 1.68951 23.8573 1.76184 23.6641 1.82861C23.3795 1.92696 23.003 2.20431 22.8251 2.44661C22.5306 2.84789 22.4994 2.99837 22.3623 4.67996C22.3306 5.06861 22.295 7.12296 22.2778 9.55196L22.2481 13.752L22.1281 13.765C21.7216 13.8091 20.8087 14.0019 20.2321 14.1654C15.804 15.4213 12.7677 18.8008 12.1943 23.112C12.1506 23.4409 12.0017 25.3489 12.0005 25.596C12.0002 25.67 11.9463 25.68 11.5444 25.68C10.7903 25.68 7.40546 25.8191 6.85231 25.8729C5.08476 26.0446 3.49702 27.1076 2.62356 28.704C2.23342 29.417 2.0622 30.2488 1.80142 32.698C1.52974 35.2493 1.52974 36.6546 1.80142 39.2059C2.07276 41.7541 2.24081 42.5326 2.68841 43.3149C3.3113 44.4037 4.34882 45.2884 5.51455 45.725C6.36535 46.0437 6.64178 46.0677 10.9681 46.1983C16.2931 46.359 18.2806 46.388 24.0001 46.388C29.7197 46.388 31.7071 46.359 37.0321 46.1983C40.2815 46.1002 41.2405 46.0509 41.6847 45.9591C43.5403 45.5759 45.1237 44.1857 45.6939 42.4392C46.0499 41.3486 46.4623 37.2357 46.3998 35.4C46.3293 33.3323 45.9652 30.287 45.6886 29.4524C45.2573 28.1508 44.2725 27.0397 42.9841 26.401C42.38 26.1016 41.8076 25.9369 41.1479 25.8729C40.6033 25.8199 37.2147 25.68 36.4783 25.68C36.174 25.68 36.0394 25.6621 36.0258 25.62C36.0153 25.587 35.9726 25.0589 35.931 24.4466C35.7963 22.4623 35.5157 21.2841 34.8472 19.896C33.5566 17.2157 31.1007 15.1736 28.0603 14.2529C27.3683 14.0433 26.154 13.776 25.894 13.776H25.7281V12.9327V12.0895L25.8347 12.1233C26.043 12.1895 30.4601 12.1562 31.6589 12.0794C33.006 11.9932 33.2072 11.9407 33.6141 11.5687C34.112 11.1137 34.2025 10.7371 34.3235 8.61596C34.4134 7.04146 34.3196 4.08456 34.1499 3.14141C34.054 2.60794 33.5975 2.06405 33.084 1.87114C32.8591 1.78666 32.6085 1.7556 31.7281 1.70304C30.294 1.61746 27.6862 1.583 26.3761 1.63229ZM26.2257 5.07255L25.7873 5.09141L25.7576 6.18168C25.7413 6.78135 25.7442 7.58516 25.7641 7.96796L25.8001 8.66396L26.4961 8.70298C27.2721 8.74647 30.8048 8.71522 30.8557 8.66439C30.9007 8.61932 30.8967 5.15252 30.8515 5.1073C30.813 5.0688 26.9809 5.04 26.2257 5.07255ZM22.7041 17.1558C21.01 17.3877 19.5262 17.966 18.3369 18.858C17.8787 19.2017 17.2272 19.8491 16.9123 20.2738C16.2439 21.1752 15.7559 22.4127 15.6038 23.592C15.4268 24.9646 15.4081 26.0071 15.4081 34.5149V42.8509L15.9001 42.8808C16.1707 42.8973 17.7151 42.9252 19.3321 42.9427L22.2721 42.9746V40.2378C22.2721 37.4309 22.2875 37.1568 22.4657 36.7886C22.6032 36.5047 22.9728 36.1486 23.2801 36.0041C23.5062 35.8978 23.6097 35.88 24.0001 35.88C24.3906 35.88 24.4941 35.8978 24.7201 36.0041C25.207 36.233 25.5791 36.7151 25.6801 37.2477C25.7086 37.3982 25.7281 38.6118 25.7281 40.2378V42.9746L28.6681 42.9427C30.2851 42.9252 31.8295 42.8973 32.1001 42.8808L32.5921 42.8509V34.4186C32.5921 27.3404 32.5803 25.8134 32.5185 24.9092C32.4126 23.3591 32.2778 22.654 31.9136 21.744C30.9879 19.431 28.6977 17.7546 25.7405 17.2255C25.0285 17.098 23.399 17.0606 22.7041 17.1558ZM23.1361 19.8462C23.0965 19.8556 22.9021 19.8895 22.7041 19.9216C20.8596 20.2201 19.3674 21.4825 18.7952 23.2285C18.5769 23.8946 18.5087 24.3871 18.5087 25.296C18.5087 26.2048 18.5769 26.6973 18.7952 27.3635C19.2821 28.849 20.4265 29.99 21.9121 30.471C22.6356 30.7052 22.932 30.744 24.0001 30.744C24.6455 30.744 25.0998 30.7211 25.3201 30.6774C27.5337 30.2389 29.0109 28.7453 29.4082 26.544C29.5202 25.9235 29.5202 24.6685 29.4082 24.048C29.0187 21.8895 27.6224 20.4386 25.4557 19.9407C25.1557 19.8718 23.3405 19.7978 23.1361 19.8462ZM23.4241 23.2881C22.3444 23.4414 21.8949 24.1045 21.9492 25.464C21.979 26.2091 22.0861 26.5163 22.4346 26.856C22.7254 27.1393 22.9767 27.2413 23.573 27.3177C24.6132 27.4512 25.5176 27.1367 25.8285 26.5334C26.1402 25.9289 26.1402 24.663 25.8285 24.0585C25.5012 23.4234 24.5706 23.1253 23.4241 23.2881ZM11.2561 29.1209C11.0713 29.1287 10.0776 29.1683 9.04783 29.2088C7.85537 29.2557 7.08593 29.3061 6.92863 29.3476C6.34169 29.5024 5.80735 29.9559 5.61914 30.4589C5.38183 31.0931 5.03959 34.3522 5.04074 35.9668C5.04151 37.1168 5.17471 38.6943 5.42849 40.56C5.54172 41.3922 5.67641 41.7196 6.04898 42.0681C6.44378 42.4374 6.79404 42.5723 7.49527 42.6251C8.10929 42.6714 10.9083 42.7689 11.6041 42.7683L12.0001 42.768V35.928V29.088L11.7961 29.0974C11.6839 29.1025 11.4409 29.1131 11.2561 29.1209ZM36.0001 35.9266V42.768L36.3961 42.7683C37.092 42.7689 39.891 42.6714 40.505 42.6251C41.1947 42.5732 41.5493 42.4401 41.9281 42.0908C42.3822 41.6722 42.4665 41.4247 42.645 39.984C43.0327 36.8534 43.0501 35.5188 42.7397 32.736C42.575 31.2601 42.4981 30.7715 42.3811 30.4589C42.1922 29.9539 41.6207 29.4767 41.0362 29.3357C40.9152 29.3065 39.9864 29.2505 38.9722 29.2112C37.9579 29.1719 36.8743 29.1275 36.5641 29.1125L36.0001 29.0853V35.9266Z" fill="#CC554D"/>
</svg>
