<svg width="18" height="27" viewBox="0 0 18 27" fill="none" xmlns="http://www.w3.org/2000/svg">
<path fill-rule="evenodd" clip-rule="evenodd" d="M11.1459 0.00659334C9.87566 0.110893 8.69171 0.569981 7.63186 1.36921C7.32226 1.60268 6.66149 2.27121 6.42063 2.59466C5.77674 3.45933 5.37511 4.38229 5.17894 5.44814C5.11743 5.78243 5.11384 5.87738 5.0992 7.56214L5.08386 9.32614L4.71985 9.34627C3.76827 9.39894 1.8972 9.54714 1.73785 9.58251C1.58542 9.61631 1.31483 9.7042 1.22778 9.74819C1.04135 9.84235 0.731507 10.0982 0.605311 10.2622C0.362187 10.5782 0.227031 10.9683 0.114807 11.6781C-0.038269 12.6465 -0.038269 13.4818 0.114807 14.4501C0.226387 15.1559 0.362383 15.5503 0.601055 15.8605C0.725067 16.0217 1.04891 16.2902 1.22778 16.3803C1.31494 16.4241 1.58601 16.5121 1.73785 16.5458C1.8972 16.5811 3.76827 16.7293 4.71985 16.782L5.08386 16.8021L5.09786 20.7221C5.11353 25.1098 5.09226 24.6814 5.316 25.1181C5.46785 25.4145 5.84943 25.7838 6.16186 25.9367C6.58541 26.144 6.57704 26.1434 8.89185 26.134L10.9359 26.1257L11.1319 26.0605C11.457 25.9522 11.6713 25.8165 11.9304 25.555C12.2041 25.2785 12.3483 25.0328 12.4346 24.6951C12.4883 24.4854 12.4899 24.3694 12.4899 20.6505V16.8218L12.6789 16.8055C12.7828 16.7965 13.0065 16.7819 13.1759 16.773C14.09 16.7249 15.8199 16.5844 16.0608 16.5387C16.6567 16.4255 17.2401 15.9458 17.4436 15.4016C17.6198 14.9307 17.7819 13.8194 17.7819 13.0818C17.7819 12.3136 17.6227 11.2052 17.4436 10.7266C17.2401 10.1825 16.6567 9.70283 16.0608 9.58962C15.8199 9.54384 14.09 9.40334 13.1759 9.35529C13.0065 9.34639 12.7814 9.3316 12.6757 9.32244L12.4835 9.30581L12.4954 8.74198C12.5061 8.23372 12.5135 8.16406 12.5702 8.03537C12.6436 7.8688 12.8154 7.69206 12.9939 7.59949C13.1175 7.53537 13.14 7.53383 14.1839 7.51731C15.3545 7.49881 15.3845 7.49488 15.7519 7.31213C16.2808 7.04901 16.6744 6.53681 16.7882 5.96357C16.8272 5.76692 16.8317 5.51901 16.8224 4.08757C16.8132 2.66822 16.8051 2.41081 16.7648 2.24214C16.5069 1.16249 15.7104 0.349509 14.6319 0.0649174C14.4179 0.00846938 14.3375 0.00561333 12.8399 0.00104933C11.9775 -0.00158267 11.2152 0.00090934 11.1459 0.00659334ZM10.9359 2.05846C9.83305 2.25807 8.9527 2.74376 8.24304 3.54414C7.78431 4.0615 7.46408 4.64883 7.26676 5.33474C7.10963 5.88094 7.10685 5.92761 7.08868 8.33214L7.07186 10.5581L6.99362 10.7175C6.89156 10.9253 6.66 11.1373 6.44888 11.2163C6.31129 11.2678 6.17493 11.2822 5.50397 11.316C3.73299 11.4052 2.21876 11.5269 2.1842 11.5828C2.15435 11.6311 2.08195 12.0348 2.04658 12.3501C2.01021 12.6743 2.01021 13.454 2.04658 13.7781C2.08189 14.0929 2.15433 14.4972 2.18406 14.5452C2.21825 14.6005 3.7942 14.7271 5.50386 14.8117C6.17983 14.8452 6.31003 14.8589 6.44877 14.9113C6.66014 14.9912 6.89184 15.2035 6.99362 15.4108L7.07186 15.5701L7.07922 19.8471L7.08656 24.1241H8.79385H10.5012L10.5085 19.8471L10.5159 15.5701L10.5859 15.4326C10.6877 15.2325 10.8661 15.0474 11.0436 14.9575C11.2282 14.8641 11.3655 14.8498 12.6999 14.7847C13.6946 14.736 15.0885 14.6374 15.4769 14.5882L15.594 14.5733L15.6353 14.3857C15.7263 13.9727 15.7519 13.6832 15.7519 13.0641C15.7519 12.445 15.7263 12.1555 15.6353 11.7426L15.594 11.555L15.4769 11.5397C15.0901 11.4889 13.3663 11.3695 12.4199 11.3279C11.4116 11.2835 11.2238 11.2619 11.0409 11.1694C10.8659 11.0808 10.6872 10.8948 10.5859 10.6957L10.5159 10.5581V9.22814C10.5159 8.03296 10.521 7.87969 10.5663 7.71614C10.8462 6.70646 11.5117 5.97639 12.4403 5.66055C12.8078 5.53556 13.12 5.50448 14.0098 5.50431L14.8158 5.50414L14.8078 4.05514L14.7999 2.60614L14.7174 2.45721C14.6252 2.29092 14.5063 2.17547 14.3301 2.08131C14.212 2.01823 14.2102 2.01814 12.7139 2.01296C11.3757 2.00834 11.186 2.01321 10.9359 2.05846Z" fill="white"/>
</svg>
