<svg width="20" height="20" viewBox="0 0 20 20" fill="none" xmlns="http://www.w3.org/2000/svg">
<path fill-rule="evenodd" clip-rule="evenodd" d="M9.30982 1.99151C7.78447 2.04189 5.84577 2.17151 5.14393 2.27003C3.06979 2.56119 1.39471 3.99531 1.02117 5.79967C0.946654 6.15969 0.796334 7.48425 0.730674 8.35967C0.639334 9.57743 0.639254 10.4488 0.730434 11.6497C0.795674 12.5093 0.948254 13.8474 1.02117 14.1997C1.33177 15.7 2.52829 16.9509 4.17731 17.499C4.68617 17.6682 5.02913 17.731 5.81533 17.7991C8.49246 18.031 10.2186 18.0647 12.4398 17.9287C13.4188 17.8688 14.4945 17.78 14.8557 17.7293C16.3902 17.5139 17.7467 16.6607 18.4823 15.4484C18.7255 15.0475 18.8944 14.6256 18.9782 14.2097C19.0537 13.8351 19.2019 12.5212 19.2693 11.6297C19.3602 10.4279 19.3601 9.57453 19.269 8.35967C19.204 7.49403 19.052 6.15449 18.9785 5.79967C18.7315 4.60769 17.9101 3.54701 16.7281 2.89345C16.1685 2.58399 15.493 2.35949 14.8498 2.26921C14.3383 2.19741 12.6472 2.07201 11.4898 2.02005C11.0158 1.99877 9.63657 1.98071 9.30982 1.99151ZM8.82981 3.44177C7.57512 3.48723 5.60167 3.63779 5.16157 3.72167C4.63425 3.82217 4.12319 4.02781 3.69981 4.30987C3.51263 4.43459 3.11981 4.76557 3.11981 4.79857C3.11981 4.81863 3.89905 5.53971 4.40981 5.99231C5.67641 7.11467 6.92215 8.10565 8.13209 8.95337C8.83615 9.44663 9.29533 9.60743 9.99981 9.60743C10.7044 9.60743 11.1636 9.44657 11.8675 8.95329C13.0763 8.10617 14.3247 7.11311 15.5898 5.99225C16.0998 5.54045 16.8798 4.81865 16.8798 4.79857C16.8798 4.76557 16.487 4.43459 16.2998 4.30987C15.9892 4.10295 15.5663 3.90945 15.1898 3.80199C14.839 3.70185 14.4326 3.65209 13.2198 3.56075C11.5139 3.43229 10.1286 3.39475 8.82981 3.44177ZM2.41233 6.17361C2.36537 6.32963 2.20611 7.81989 2.13595 8.75967C2.09615 9.29259 2.10221 10.8129 2.14643 11.3897C2.20937 12.211 2.33803 13.3942 2.41101 13.8232C2.51031 14.4068 2.83585 14.9667 3.32981 15.4034C3.82225 15.8387 4.46295 16.1445 5.16157 16.2777C5.83335 16.4057 8.61785 16.5793 9.99981 16.5793C11.3818 16.5793 14.1663 16.4057 14.8381 16.2777C15.9717 16.0616 16.9143 15.4058 17.3571 14.525C17.5254 14.1903 17.5779 13.9805 17.6588 13.318C17.9492 10.9418 17.9702 9.57021 17.7487 7.45967C17.6963 6.95997 17.5971 6.19123 17.5815 6.16333C17.5708 6.14433 17.4573 6.23657 17.1879 6.48315C15.746 7.80285 14.3301 8.95877 12.9483 9.94449C12.1016 10.5484 11.7545 10.7318 11.1403 10.8994C10.4262 11.0944 9.57343 11.0944 8.85933 10.8994C8.25559 10.7346 7.90849 10.5531 7.09525 9.97699C5.77177 9.03935 4.25031 7.79931 2.82981 6.50053C2.40319 6.11047 2.42597 6.12831 2.41233 6.17361Z" fill="#CC554D"/>
</svg>
