<svg width="20" height="20" viewBox="0 0 20 20" fill="none" xmlns="http://www.w3.org/2000/svg">
<g clip-path="url(#clip0_3012_366)">
<path fill-rule="evenodd" clip-rule="evenodd" d="M14.5095 0.672694C13.8989 0.745934 13.3408 0.969574 12.8838 1.32413C12.4519 1.65925 10.563 3.37673 10.3554 3.62311C9.99534 4.05037 9.81976 4.53751 9.81962 5.10951C9.81948 5.73259 10.023 6.21871 10.5316 6.80985C10.6074 6.89803 10.6807 6.98439 10.6944 7.00173C10.7153 7.02833 10.6847 7.08419 10.4982 7.35875C9.59422 8.68999 8.6902 9.59517 7.37434 10.4866L7.05916 10.7001L6.81432 10.4939C6.51054 10.2381 6.3693 10.1416 6.13392 10.029C5.63016 9.78781 5.08926 9.73771 4.52952 9.88031C4.31866 9.93405 3.96688 10.107 3.76706 10.2551C3.49158 10.4594 1.90788 12.1668 1.36402 12.8458C0.848644 13.4894 0.606144 14.2524 0.675764 15.0114C0.726824 15.568 0.865724 15.9738 1.15392 16.4084C1.35696 16.7146 1.64744 16.9927 2.13346 17.3463C2.35562 17.5079 2.70662 17.772 2.91346 17.9331C3.57092 18.4452 4.04034 18.724 4.62196 18.9475C6.21588 19.5602 7.99916 19.4455 9.50952 18.6331C9.93556 18.404 10.2825 18.1449 11.3195 17.2812C13.3874 15.5591 14.685 14.3091 16.1803 12.5988C17.1453 11.4951 18.1025 10.3274 18.3621 9.93729C19.4657 8.27891 19.6442 6.16551 18.8365 4.31989C18.6249 3.83629 18.3954 3.46777 17.9459 2.88951C17.792 2.69151 17.544 2.36301 17.3949 2.15951C17.0516 1.69125 16.9251 1.54155 16.7388 1.38319C16.2804 0.993494 15.7729 0.767274 15.18 0.688314C14.9874 0.662674 14.6573 0.654974 14.5095 0.672694ZM14.4635 2.12871C14.0842 2.21511 13.8931 2.33039 13.3695 2.78859C12.7616 3.32053 11.5562 4.43157 11.4444 4.56289C11.287 4.74797 11.228 4.95805 11.2607 5.21799C11.2946 5.48817 11.3666 5.59637 11.929 6.22199C12.2697 6.60097 12.3048 6.66365 12.3159 6.91267C12.3257 7.13043 12.3054 7.18475 12.0762 7.55603C10.9697 9.34795 9.82956 10.5525 8.18492 11.6672C7.78204 11.9402 7.35364 12.2069 7.23556 12.2582C7.05578 12.3363 6.82996 12.3275 6.64524 12.2352C6.59654 12.2109 6.42908 12.0744 6.2731 11.9319C5.88308 11.5755 5.6548 11.3878 5.54362 11.3321C5.24018 11.1801 4.83856 11.2192 4.6012 11.4239C4.384 11.6112 3.00026 13.1199 2.55084 13.6595C2.2043 14.0755 2.08112 14.4122 2.10504 14.878C2.1297 15.3581 2.3287 15.7098 2.75104 16.0195C3.00044 16.2024 3.74394 16.7606 4.02854 16.9786C4.28612 17.1759 4.49396 17.3073 4.75392 17.4372C6.10344 18.1116 7.74124 18.0449 9.00952 17.264C9.28754 17.0928 9.39974 17.0064 10.1695 16.3709C12.6912 14.2892 14.0884 12.9015 16.1116 10.4695C16.8492 9.58289 17.0657 9.30699 17.2352 9.03801C17.9711 7.86991 18.1043 6.39397 17.5935 5.06807C17.414 4.60239 17.2508 4.33711 16.7207 3.64951C16.5935 3.48451 16.371 3.18711 16.2261 2.98861C15.8355 2.45327 15.6299 2.27869 15.2495 2.15963C15.0668 2.10245 14.6506 2.08607 14.4635 2.12871Z" fill="#CC554D"/>
</g>
<defs>
<clipPath id="clip0_3012_366">
<rect width="20" height="20" fill="white"/>
</clipPath>
</defs>
</svg>
