<svg width="20" height="20" viewBox="0 0 20 20" fill="none" xmlns="http://www.w3.org/2000/svg">
<path fill-rule="evenodd" clip-rule="evenodd" d="M9.44953 0.672585C9.21753 0.691005 8.77739 0.743265 8.61953 0.771145C7.20799 1.02043 5.93405 1.62746 4.83953 2.57237C4.62247 2.75974 4.16661 3.21827 3.97685 3.44007C2.96443 4.62349 2.27895 6.16364 2.07195 7.72006C1.98795 8.35164 1.96455 9.26215 2.01747 9.84007C2.15765 11.3708 2.59541 12.6938 3.33249 13.8143C4.05539 14.9133 5.24359 16.2376 6.37953 17.2106C7.23549 17.9437 8.52245 18.8929 8.92953 19.0913C9.60837 19.4221 10.3907 19.4221 11.0695 19.0913C11.4744 18.8939 12.7621 17.9442 13.6195 17.2104C14.6966 16.2887 15.7667 15.1108 16.5633 13.9701C17.3528 12.8394 17.845 11.4027 17.9815 9.83006C18.013 9.46685 18.0129 8.54508 17.9813 8.20006C17.8167 6.40184 17.1953 4.87177 16.0724 3.50007C15.8522 3.23101 15.2149 2.60758 14.9205 2.37319C13.7499 1.44129 12.4222 0.886245 10.9395 0.708965C10.6818 0.678145 9.68587 0.653825 9.44953 0.672585ZM9.44953 2.11161C9.41653 2.11599 9.29503 2.12957 9.17953 2.14176C8.89761 2.17157 8.52353 2.24579 8.21953 2.33225C6.23205 2.89745 4.62557 4.40696 3.86915 6.42006C3.13957 8.36172 3.30587 10.8313 4.28669 12.6208C4.45589 12.9295 4.59653 13.1419 4.88221 13.5201C6.01427 15.0187 7.20735 16.1517 9.01615 17.4458C9.57057 17.8425 9.69429 17.8996 9.99953 17.8996C10.2976 17.8996 10.4344 17.8376 10.9533 17.4677C12.6669 16.246 13.8959 15.097 14.9686 13.714C15.6086 12.8889 15.902 12.3653 16.1701 11.5701C16.679 10.0607 16.7157 8.30342 16.2692 6.83038C16.0735 6.18472 15.7933 5.59215 15.4084 5.01007C15.1514 4.62135 14.9206 4.34051 14.5699 3.98946C14.0143 3.43339 13.4885 3.05647 12.8095 2.72761C12.1934 2.42917 11.5969 2.24781 10.9024 2.14779C10.7013 2.11883 9.60137 2.09143 9.44953 2.11161ZM9.44099 6.07181C8.21097 6.25085 7.38405 7.01215 7.13973 8.19049C7.01993 8.76824 7.04871 9.48748 7.21371 10.0401C7.47293 10.9081 8.15345 11.5567 9.04911 11.7894C9.76557 11.9756 10.6932 11.9258 11.3168 11.6676C12.1316 11.3303 12.6819 10.6381 12.8669 9.71797C12.9233 9.43724 12.9457 8.99689 12.9201 8.66926C12.8839 8.2041 12.8065 7.88448 12.6473 7.54268C12.2647 6.72122 11.5319 6.20937 10.5406 6.07108C10.2674 6.03299 9.70515 6.03337 9.44099 6.07181ZM9.73953 7.48091C8.90785 7.55562 8.49969 8.04586 8.49969 8.97007C8.49969 9.80439 8.82119 10.2706 9.50143 10.4225C9.76507 10.4814 10.2321 10.4818 10.4934 10.4234C11.1761 10.2709 11.4993 9.80388 11.4993 8.97007C11.4993 8.29744 11.2794 7.84727 10.8495 7.63989C10.6508 7.54401 10.4941 7.5033 10.2328 7.47974C10.0057 7.45926 9.97989 7.45932 9.73953 7.48091Z" fill="#CC554D"/>
</svg>
