<svg width="20" height="21" viewBox="0 0 20 21" fill="none" xmlns="http://www.w3.org/2000/svg">
<g clip-path="url(#clip0_3872_528)">
<path fill-rule="evenodd" clip-rule="evenodd" d="M7.65028 1.42713C6.8925 1.49945 6.18344 1.66883 5.49966 1.94089C2.52418 3.12475 0.582177 6.05639 0.666717 9.23667C0.686557 9.98329 0.782117 10.5989 0.983257 11.2757C1.44252 12.8213 2.42132 14.2232 3.72966 15.2093C4.35672 15.682 5.0921 16.0737 5.8214 16.3236C6.12006 16.4259 6.31366 16.41 6.5347 16.2651C6.70574 16.1529 6.80076 15.9984 6.84108 15.767C6.87866 15.5512 6.7896 15.3026 6.61972 15.1491C6.52124 15.0601 6.47812 15.0382 6.19864 14.9354C5.01822 14.501 4.01786 13.7397 3.2572 12.6967C2.7208 11.9612 2.3298 11.0172 2.18028 10.0967C2.15794 9.95917 2.13966 9.83543 2.13966 9.82167C2.13966 9.80191 2.43668 9.79667 3.55806 9.79667H4.97648L4.9895 9.93167C5.05072 10.5659 5.17698 11.222 5.35996 11.8567C5.52896 12.4429 5.78732 13.1285 5.88972 13.2627C6.1454 13.5975 6.66008 13.6304 6.96104 13.331C7.11732 13.1756 7.19744 12.925 7.15888 12.7123C7.14724 12.6481 7.0896 12.4721 7.03082 12.3211C6.82628 11.7958 6.62698 11.1095 6.53004 10.5967C6.49474 10.4099 6.41966 9.89039 6.41966 9.83289C6.41966 9.79819 6.5 9.79667 8.34466 9.79669H10.2697L10.2705 10.0017C10.2712 10.1746 10.2786 10.2216 10.318 10.3023C10.543 10.7635 11.1271 10.8716 11.4803 10.5175C11.6183 10.3792 11.6997 10.1677 11.6997 9.94733C11.6997 9.78161 11.5557 9.79667 13.1392 9.79667H14.5545L14.5676 9.87851C14.5869 9.99891 14.651 10.1106 14.7668 10.2259C14.9219 10.3802 15.0285 10.4233 15.2597 10.4251C15.4906 10.427 15.5855 10.3902 15.7495 10.235C15.9611 10.0349 16.0024 9.84355 16.0018 9.06667C16.0013 8.37929 15.9422 7.87635 15.7868 7.23667C15.2121 4.87017 13.4852 2.87557 11.2197 1.96149C10.5551 1.69333 9.93134 1.53429 9.19966 1.44641C8.8216 1.40101 8.0276 1.39113 7.65028 1.42713ZM6.55966 3.08913C6.18136 3.20531 5.96858 3.29021 5.58966 3.47611C5.0518 3.74001 4.69258 3.97617 4.25782 4.35171C3.15426 5.30493 2.42614 6.59869 2.18002 8.04365C2.15782 8.17401 2.13966 8.29775 2.13966 8.31865C2.13966 8.35565 2.17768 8.35667 3.556 8.35667H4.97234L5.0061 8.04727C5.17456 6.50377 5.72412 4.91609 6.62906 3.35861C6.73388 3.17819 6.81966 3.02745 6.81966 3.02361C6.81966 3.01087 6.79106 3.01807 6.55966 3.08913ZM9.97718 3.21023C10.6029 4.25061 11.1101 5.42979 11.3993 6.51667C11.5475 7.07337 11.6109 7.42941 11.7119 8.27167L11.7221 8.35667H13.1296H14.5371L14.5266 8.28167C14.447 7.71805 14.3297 7.26479 14.1387 6.78225C13.7467 5.79263 13.148 4.97007 12.2983 4.25403C11.7092 3.75757 10.922 3.33411 10.1637 3.10575C10.035 3.06697 9.91376 3.03043 9.89434 3.02453C9.86958 3.01699 9.8943 3.07239 9.97718 3.21023ZM8.18464 3.56143C7.55236 4.53429 7.01236 5.70643 6.7185 6.74385C6.58394 7.21889 6.41966 8.07795 6.41966 8.30651V8.35667H8.35034H10.281L10.2686 8.25167C10.1588 7.32723 9.95592 6.54159 9.59664 5.64905C9.31886 4.95903 8.8422 4.05623 8.43586 3.45051L8.34488 3.31487L8.18464 3.56143ZM13.2697 11.6692C12.9103 11.7214 12.6764 11.7948 11.9419 12.0859C10.92 12.4909 10.3973 12.7305 9.73966 13.0952C9.13248 13.4319 8.57064 13.774 8.4542 13.8778C8.24034 14.0684 8.09342 14.3416 8.06358 14.6043C8.05592 14.6716 8.05416 15.4557 8.05966 16.3467L8.06966 17.9667L8.12306 18.0806C8.19118 18.2259 8.3304 18.3651 8.47574 18.4333C8.57274 18.4787 8.61638 18.4867 8.76966 18.4867C8.92294 18.4867 8.96658 18.4787 9.06358 18.4333C9.20892 18.3651 9.34814 18.2259 9.41626 18.0806L9.46966 17.9667L9.47526 17.0917C9.47834 16.6104 9.4862 16.2167 9.49272 16.2167C9.49924 16.2167 9.64972 16.2966 9.82712 16.3942C10.0045 16.4919 10.1969 16.5955 10.2547 16.6246L10.3597 16.6773L10.3599 16.842C10.3603 17.2243 10.4466 18.1856 10.4998 18.401C10.6645 19.0678 11.1972 19.6479 11.8482 19.8695C12.0205 19.9282 12.2285 19.9664 12.5897 20.0057C13.4573 20.1002 13.9753 20.098 14.8824 19.9959C15.4208 19.9353 15.6832 19.854 15.9891 19.6532C16.5177 19.3062 16.8554 18.7687 16.9381 18.1428C16.9626 17.9571 17.0128 17.3135 17.0318 16.9412L17.0453 16.6758L17.2575 16.5628C18.05 16.1408 18.7881 15.7003 18.948 15.5538C19.4314 15.1108 19.4643 14.4506 19.0264 13.9776C18.8812 13.8208 18.7171 13.7102 18.094 13.3492C17.1552 12.8053 16.7382 12.6043 15.6452 12.1688C14.458 11.6958 14.3747 11.6737 13.7497 11.6658C13.5187 11.6629 13.3027 11.6644 13.2697 11.6692ZM13.4597 13.0897C13.2728 13.1147 13.0892 13.1758 12.5136 13.4043C11.4221 13.8376 10.9711 14.0461 10.2797 14.437C10.0982 14.5396 9.91598 14.6423 9.87482 14.6651C9.83366 14.688 9.79992 14.7121 9.79982 14.7187C9.79964 14.7324 10.541 15.1544 10.8597 15.322C11.4064 15.6096 13.0174 16.2626 13.3427 16.3285C13.543 16.3691 13.986 16.3584 14.1661 16.3086C14.31 16.2688 15.4121 15.8323 15.8597 15.6377C16.4213 15.3937 17.6229 14.751 17.5852 14.7149C17.5478 14.679 16.7616 14.2401 16.4797 14.0977C15.9126 13.8111 14.4305 13.203 14.1097 13.1251C13.9858 13.095 13.5832 13.0731 13.4597 13.0897ZM11.8197 17.3417C11.82 17.4361 11.8828 18.0194 11.8985 18.0733C11.9652 18.3031 12.1684 18.4875 12.408 18.5357C12.7981 18.6141 13.7424 18.6571 14.2297 18.6185C14.758 18.5768 15.021 18.5385 15.1341 18.487C15.3208 18.4019 15.4754 18.2025 15.5086 18.0041C15.5245 17.9089 15.5762 17.3294 15.5695 17.321C15.5671 17.318 15.3681 17.3914 15.1274 17.4841C14.5065 17.7234 14.1705 17.7967 13.6954 17.7966C13.2023 17.7965 12.8946 17.7251 12.1532 17.4389C11.9791 17.3716 11.8328 17.3167 11.8282 17.3167C11.8235 17.3167 11.8197 17.3279 11.8197 17.3417Z" fill="white"/>
</g>
<defs>
<clipPath id="clip0_3872_528">
<rect width="20" height="20" fill="white" transform="translate(0 0.736328)"/>
</clipPath>
</defs>
</svg>
