<svg width="64" height="58" viewBox="0 0 64 58" fill="none" xmlns="http://www.w3.org/2000/svg">
<path fill-rule="evenodd" clip-rule="evenodd" d="M31.4189 44.6141C32.2454 38.9375 28.1928 29.6535 23.3187 25.9194C23.1534 29.5123 24.3056 34.0107 25.588 36.9464C26.7752 39.6532 29.6305 43.7183 31.4189 44.6141ZM1.48278 57.5641C2.77019 58.2456 7.9499 57.9243 9.93362 57.9243C12.9593 57.9243 25.1672 58.1337 27.1609 57.715C28.283 57.4813 29.3701 57.0139 30.2717 56.4735C33.618 54.4678 31.8297 55.1007 35.8322 56.8289C36.9142 57.2963 37.9662 57.6176 39.1884 57.7929C41.4076 58.1093 56.9167 57.9243 60.9142 57.9243C62.2316 57.9292 64.01 58.2602 64 56.7754C63.9899 55.3295 62.0263 55.6557 60.7338 55.6557C56.8215 55.6557 41.3525 55.8553 39.2035 55.495C36.3932 55.0228 35.1709 53.4697 33.1772 53.017C31.0181 52.5301 29.2498 54.7793 27.1359 55.3782C24.0551 56.2496 4.80901 54.9692 1.65811 55.865C1.3876 56.4687 1.28741 56.79 1.48278 57.5641ZM31.8647 34.0691C32.2755 33.592 32.3907 32.8618 32.7163 32.0341C34.0438 28.6798 37.0695 23.9672 39.8146 21.7131C40.4358 21.2019 40.8916 20.9731 41.4277 20.1942C41.0219 16.129 39.7044 12.2051 38.2317 8.85564C36.5786 5.08749 34.7551 2.61434 32.566 0C30.9981 1.26579 28.5285 5.21893 27.3513 7.6434C25.9036 10.6131 24.8115 13.7581 24.0801 17.2634C22.6625 24.0353 23.489 21.6449 28.3531 27.8619C29.5704 29.4149 31.2586 32.1704 31.8647 34.0691ZM1.48278 38.9424C1.98372 40.5392 5.38509 43.4798 6.81277 44.5362C8.40576 45.7144 11.9424 47.6958 14.3168 48.0415C13.3099 47.3501 12.1478 46.6394 11.2311 45.9237C10.675 45.4855 10.1941 45.1642 9.82341 44.804C9.2824 44.2879 9.02191 43.9179 8.49592 43.4359C5.91609 41.0942 5.20476 39.3513 3.82216 37.7983C3.80213 37.774 3.75704 37.7253 3.72198 37.6912C2.86036 38.0953 2.21415 38.6211 1.48278 38.9424ZM53.2598 16.9761C53.2949 27.6915 49.8685 39.2248 40.9067 45.1496C39.6092 46.0065 38.1515 46.4057 37.0294 47.1116C45.8409 48.8642 52.5234 41.917 55.5591 37.7204C57.4326 35.1402 59.1659 31.7858 60.3782 28.3731C61.34 25.6663 62.9279 19.5661 62.5973 16.465C60.5335 15.6422 55.2586 16.3432 53.2598 16.9761ZM0 19.9751C0.966812 33.3097 12.7489 51.4299 27.6969 47.764L27.1659 47.4962C24.4458 46.4738 23.1283 46.5225 19.9023 43.8887C13.0144 38.2706 9.94364 28.6457 9.41264 19.4542C3.10582 19.0793 5.48528 19.2546 0 19.9751ZM28.6487 45.4466C28.6236 45.4028 28.5786 45.2859 28.5635 45.32L27.747 44.4388C25.7382 42.4817 23.8096 38.9473 22.8077 36.2745C21.1146 31.7664 20.9893 28.2855 20.9192 23.2126C19.1309 21.5038 14.9931 18.5048 11.717 17.6967C11.8422 28.3633 16.7514 43.4019 28.6487 45.4466ZM13.7307 15.9343C15.3888 16.9421 17.4577 17.5993 19.3713 19.016C19.9123 19.4201 20.5185 19.9167 21.0795 20.2282C21.1046 20.1844 21.1296 20.0676 21.1346 20.0919L21.6606 17.3802C22.1365 14.8292 23.8247 9.99484 23.8647 9.31813C21.9812 8.1059 18.4796 4.99499 15.6443 4.44973C14.7827 7.17117 13.3701 12.911 13.7307 15.9343ZM40.9868 9.18669C41.8484 12.3317 42.6399 13.4709 43.3663 17.3656C43.3963 17.5457 43.4314 17.7989 43.4765 17.9596C43.5015 18.0764 43.5116 18.1251 43.5566 18.2468C43.7771 18.8992 43.5867 18.4123 43.737 18.6606C44.794 18.018 45.8509 17.3948 47.0281 16.8204C48.0651 16.314 49.8534 15.7347 50.705 15.2479C51.3613 13.6169 49.5829 6.12446 48.8215 4.43999C46.1565 5.18972 42.5598 7.7213 40.9868 9.18669ZM45.5554 48.6257C47.5942 49.3803 54.0112 46.4446 55.5141 45.4953C57.4276 44.2879 61.7958 40.8313 62.1916 39.0203C61.2248 38.3046 60.0325 37.6328 58.9054 37.1508L56.2254 40.6804C55.2035 41.9413 54.3268 42.7884 53.2348 43.8157C51.3212 45.6267 48.7514 47.5838 45.5554 48.6257ZM33.8234 44.395C36.0325 43.2217 38.8428 38.4117 39.8797 35.8023C41.1371 32.6329 42.139 27.044 41.6831 23.2905C39.5692 24.6439 36.5635 29.2445 35.4164 31.8248C34.6249 33.6018 34.0538 35.3739 33.6781 37.4137C33.2423 39.7944 33.8184 41.9365 33.8234 44.395ZM43.9774 21.3139C43.8322 26.3186 44.5535 28.8502 42.7952 34.5462C41.3675 39.1858 39.7996 41.1721 37.4602 44.322C40.1853 43.5625 44.0025 39.5461 45.4301 37.2871C48.9518 31.7177 50.9004 24.7753 50.9054 17.7113C48.1553 18.4172 46.0213 20.1309 43.9774 21.3139Z" fill="#CC554D"/>
</svg>
