<svg width="17" height="17" viewBox="0 0 17 17" fill="none" xmlns="http://www.w3.org/2000/svg">
<path fill-rule="evenodd" clip-rule="evenodd" d="M1.49386 1.94319C1.17794 1.99685 0.96914 2.30231 1.03154 2.61953C1.07282 2.82932 1.2342 3.0025 1.43932 3.05714C1.55938 3.08911 15.4165 3.08911 15.5365 3.05714C15.8068 2.98517 15.9879 2.71317 15.9528 2.43205C15.9284 2.23697 15.7797 2.04684 15.5919 1.97068L15.5039 1.93498L8.53592 1.93281C4.70352 1.93161 1.5346 1.93628 1.49386 1.94319ZM1.4696 7.78356C1.30264 7.81674 1.14608 7.94473 1.06908 8.11098C1.03141 8.19229 1.02464 8.22778 1.02476 8.34298C1.02488 8.45829 1.03184 8.49415 1.07048 8.57873C1.12559 8.69932 1.2358 8.80781 1.36444 8.8681L1.45592 8.91098H8.48792H15.5199L15.6114 8.8681C15.7401 8.80781 15.8503 8.69932 15.9054 8.57873C15.9441 8.49402 15.9509 8.45849 15.9509 8.34298C15.9509 8.22748 15.9441 8.19194 15.9054 8.10724C15.8503 7.98665 15.7401 7.87815 15.6114 7.81786L15.5199 7.77498L8.52792 7.77268C4.68232 7.77141 1.50608 7.77631 1.4696 7.78356ZM1.4318 13.6298C1.23343 13.6846 1.07204 13.8606 1.03154 14.0664C0.9781 14.3381 1.1262 14.6107 1.38392 14.7153L1.47192 14.751H8.48792H15.5039L15.5919 14.7153C15.7797 14.6391 15.9284 14.449 15.9528 14.2539C15.9879 13.9728 15.8068 13.7008 15.5365 13.6288C15.4217 13.5982 1.5426 13.5992 1.4318 13.6298Z" fill="#4A5565"/>
</svg>
