<svg width="48" height="48" viewBox="0 0 48 48" fill="none" xmlns="http://www.w3.org/2000/svg">
<path d="M24.0049 2.38672C38.1054 2.38711 46.3571 13.2319 45.4821 24.0631L45.4804 24.0731L44.8308 31.5413C44.7487 32.4845 43.9174 33.1836 42.9742 33.1016C42.0313 33.0195 41.3339 32.1879 41.4156 31.245L42.0635 23.7868C42.7797 14.9222 36.0736 5.81568 24.0049 5.81529C11.941 5.81529 5.23356 14.9138 5.94299 23.7751L6.62101 31.5765C6.70311 32.5196 6.00551 33.3508 5.06241 33.433C4.11943 33.5151 3.28827 32.8173 3.20583 31.8744L2.52614 24.0731V24.0631C1.65133 13.2317 9.90424 2.38672 24.0049 2.38672Z" fill="#CC554D"/>
<path d="M10.4466 21.3947C15.3542 20.8747 18.5355 24.4321 19.085 27.6592C19.7633 31.6418 20.0521 32.7844 20.1799 36.9723C20.2812 40.3003 17.659 44.3975 12.8172 44.9109C7.90968 45.4305 4.72668 41.8735 4.17709 38.6464C3.49885 34.6638 3.21172 33.5212 3.08389 29.3333C2.98243 26.0053 5.60436 21.9077 10.4466 21.3947ZM10.8082 24.8048C7.89354 25.1136 6.45941 27.5461 6.51079 29.2295C6.63037 33.1464 6.87524 34.0666 7.55711 38.0705C7.84857 39.7819 9.60599 41.8025 12.4555 41.5007C15.37 41.1917 16.8044 38.7595 16.753 37.076C16.6334 33.1588 16.387 32.238 15.705 28.2334C15.4131 26.5221 13.657 24.5031 10.8082 24.8048Z" fill="#CC554D"/>
<path d="M28.9222 27.6592C29.4717 24.4321 32.6547 20.8747 37.5623 21.3947C42.4042 21.908 45.0264 26.0055 44.925 29.3333C44.797 33.5212 44.5082 34.6637 43.8301 38.6464C43.2977 41.7725 40.2959 45.2083 35.6471 44.9477L35.1917 44.9109C30.3496 44.3977 27.7276 40.3004 27.829 36.9722C27.9568 32.7845 28.2439 31.6417 28.9222 27.6592ZM37.2007 24.8048C34.3518 24.503 32.594 26.522 32.3022 28.2334C31.6202 32.238 31.3755 33.1588 31.2559 37.076C31.2045 38.7596 32.6387 41.1918 35.5533 41.5007C38.4028 41.8022 40.1586 39.7818 40.4501 38.0705C41.1319 34.0664 41.3784 33.1464 41.4981 29.2295C41.5494 27.5462 40.1152 25.1138 37.2007 24.8048Z" fill="#CC554D"/>
</svg>
