<svg width="48" height="48" viewBox="0 0 48 48" fill="none" xmlns="http://www.w3.org/2000/svg">
<path d="M24.0048 2.3877C38.1053 2.38809 46.3569 13.2329 45.4819 24.064L45.4803 24.0741L44.8307 31.5423C44.7486 32.4855 43.9173 33.1846 42.9741 33.1025C42.0311 33.0205 41.3338 32.1889 41.4155 31.246L42.0634 23.7878C42.7796 14.9231 36.0734 5.81666 24.0048 5.81627C11.9408 5.81627 5.23344 14.9148 5.94287 23.7761L6.62088 31.5774C6.70299 32.5206 6.00539 33.3518 5.06229 33.434C4.11931 33.5161 3.28815 32.8183 3.2057 31.8754L2.52602 24.0741V24.064C1.6512 13.2327 9.90412 2.3877 24.0048 2.3877Z" fill="#CC554D"/>
<path d="M10.4465 21.3952C15.3541 20.8752 18.5353 24.4326 19.0849 27.6597C19.7632 31.6423 20.0519 32.7849 20.1798 36.9727C20.2811 40.3008 17.6588 44.398 12.817 44.9114C7.90956 45.431 4.72656 41.874 4.17696 38.6468C3.49873 34.6643 3.2116 33.5216 3.08377 29.3338C2.9823 26.0058 5.60424 21.9082 10.4465 21.3952ZM10.8081 24.8053C7.89342 25.1141 6.45929 27.5466 6.51067 29.23C6.63025 33.1469 6.87512 34.0671 7.55699 38.071C7.84845 39.7824 9.60587 41.8029 12.4554 41.5012C15.3699 41.1922 16.8042 38.76 16.7529 37.0765C16.6333 33.1593 16.3869 32.2385 15.7049 28.2339C15.413 26.5226 13.6569 24.5036 10.8081 24.8053Z" fill="#CC554D"/>
<path d="M28.922 27.6598C29.4715 24.4327 32.6545 20.8753 37.562 21.3953C42.404 21.9087 45.0261 26.0061 44.9247 29.3339C44.7968 33.5218 44.508 34.6643 43.8299 38.647C43.2974 41.7731 40.2956 45.209 35.6468 44.9483L35.1915 44.9115C30.3493 44.3983 27.7274 40.301 27.8288 36.9729C27.9566 32.7851 28.2437 31.6423 28.922 27.6598ZM37.2004 24.8055C34.3515 24.5036 32.5938 26.5227 32.302 28.234C31.62 32.2386 31.3752 33.1594 31.2557 37.0767C31.2043 38.7602 32.6384 41.1924 35.5531 41.5013C38.4026 41.8028 40.1584 39.7824 40.4499 38.0711C41.1316 34.067 41.3781 33.147 41.4978 29.2301C41.5492 27.5468 40.115 25.1144 37.2004 24.8055Z" fill="#CC554D"/>
</svg>
