<svg width="20" height="21" viewBox="0 0 20 21" fill="none" xmlns="http://www.w3.org/2000/svg">
<path d="M8.75994 3.122C9.49517 2.59339 10.5037 2.5935 11.239 3.122L12.1368 3.76792C14.7764 5.66585 17.0401 7.99504 18.8199 10.6478L19.108 11.0768C19.7542 12.0398 18.975 13.1778 17.941 13.1778H17.0363C17.0848 14.3429 17.0171 15.5111 16.8291 16.6662C16.6298 17.8911 15.533 18.7462 14.3012 18.7463H5.69841C4.46668 18.7463 3.36912 17.8913 3.16981 16.6662C2.9819 15.5111 2.91419 14.3429 2.96264 13.1778H2.05793C1.02411 13.1777 0.244783 12.0398 0.890936 11.0768L1.17902 10.6478C2.95893 7.9951 5.2225 5.66584 7.8622 3.76792L8.75994 3.122ZM10.4054 4.28201C10.1684 4.11162 9.83123 4.11169 9.5942 4.28201L8.69646 4.92724C6.19214 6.72777 4.04883 8.93504 2.36555 11.4437L2.16047 11.7492H3.72227C3.92243 11.7493 4.11364 11.8333 4.24892 11.9808C4.38416 12.1284 4.45108 12.3262 4.43377 12.5256C4.32056 13.8291 4.36958 15.1417 4.58025 16.4367C4.65806 16.915 5.1094 17.3177 5.69841 17.3177H14.3012C14.8902 17.3177 15.3415 16.915 15.4194 16.4367C15.6301 15.1417 15.6784 13.8291 15.5652 12.5256C15.5479 12.3262 15.6154 12.1284 15.7507 11.9808C15.886 11.8333 16.0772 11.7492 16.2774 11.7492H17.8392L17.6341 11.4437C15.9509 8.93492 13.8069 6.72786 11.3025 4.92724L10.4054 4.28201Z" fill="white"/>
<path d="M11.4978 13.9994C11.4976 13.1723 10.8266 12.5018 9.99944 12.5018C9.17237 12.5019 8.50193 13.1724 8.50181 13.9994V17.3177H11.4978V13.9994ZM12.9263 18.0319C12.9263 18.4263 12.6064 18.7461 12.2121 18.7462H7.78753C7.39304 18.7462 7.07324 18.4264 7.07324 18.0319V13.9994C7.07336 12.3834 8.38339 11.0734 9.99944 11.0732C11.6156 11.0732 12.9262 12.3833 12.9263 13.9994V18.0319Z" fill="white"/>
</svg>
