<svg width="20" height="20" viewBox="0 0 20 20" fill="none" xmlns="http://www.w3.org/2000/svg">
<path fill-rule="evenodd" clip-rule="evenodd" d="M8.99984 1.01242C8.93934 1.01626 8.70534 1.02904 8.47984 1.0408C7.58648 1.08744 5.8269 1.24504 5.3427 1.32178C3.3747 1.63368 1.75966 3.16732 1.3529 5.11048C1.26256 5.54212 1.12536 6.97832 1.03576 8.43048C1.00104 8.99312 1.00112 11.0099 1.03588 11.5705C1.12832 13.0611 1.26114 14.4521 1.3529 14.8905C1.75956 16.8331 3.37522 18.3674 5.3427 18.6792C5.78748 18.7497 7.3324 18.8906 8.46984 18.9645C9.0063 18.9993 10.9934 18.9993 11.5298 18.9645C12.6673 18.8906 14.2122 18.7497 14.657 18.6792C16.4552 18.3942 17.9614 17.0974 18.5268 15.3474C18.6615 14.9305 18.7107 14.6198 18.8084 13.5705C18.9626 11.914 18.9889 11.3933 18.9889 10.0005C18.9889 8.77488 18.9772 8.4656 18.8888 7.35048C18.7998 6.22776 18.7174 5.46364 18.6487 5.12354C18.2574 3.18577 16.6283 1.6342 14.657 1.32178C14.2414 1.25592 12.7792 1.12002 11.7198 1.04878C11.2867 1.01966 9.30318 0.993145 8.99984 1.01242ZM9.17984 2.44224C7.96464 2.4862 5.94334 2.66303 5.40546 2.77242C4.1761 3.02244 3.16592 3.96368 2.81046 5.19028C2.74222 5.42576 2.7115 5.62614 2.65096 6.23048C2.41492 8.58734 2.37474 10.1383 2.50122 12.0105C2.55588 12.8195 2.6784 14.1281 2.72972 14.4507C2.89572 15.4946 3.60736 16.4547 4.57262 16.9373C5.00102 17.1515 5.3262 17.2379 5.97984 17.3113C8.37972 17.581 10.0958 17.6312 12.0698 17.4896C13.1334 17.4133 14.3435 17.2867 14.6398 17.2207C15.8531 16.9508 16.8392 16.0186 17.1892 14.8107C17.258 14.5734 17.289 14.3711 17.3484 13.7705C17.6169 11.0596 17.6357 9.50132 17.4288 7.09048C17.3758 6.47232 17.3002 5.7382 17.2701 5.55024C17.1042 4.51238 16.397 3.5529 15.4426 3.0708C14.9892 2.8418 14.6351 2.75249 13.8598 2.67158C11.8455 2.46141 10.4886 2.3949 9.17984 2.44224ZM14.3867 4.4624C14.1656 4.49932 13.9785 4.60172 13.8192 4.77303C13.7029 4.8981 13.6539 4.97964 13.5984 5.14048C13.5394 5.31144 13.5342 5.63246 13.5874 5.81048C13.6929 6.16318 13.9849 6.43702 14.3344 6.5111C15.1438 6.6826 15.782 6.04443 15.6105 5.23509C15.4966 4.6979 14.9694 4.36504 14.3867 4.4624ZM9.65984 6.40146C8.71162 6.4611 7.98508 6.75362 7.40224 7.31038C6.85674 7.83144 6.54348 8.48842 6.4295 9.35048C6.38714 9.67078 6.38714 10.3302 6.4295 10.6505C6.54348 11.5125 6.85674 12.1695 7.40224 12.6906C8.0561 13.3152 8.87866 13.6046 9.99984 13.6046C10.4586 13.6046 10.7908 13.5667 11.1716 13.471C12.1825 13.2168 12.9564 12.545 13.3379 11.5905C13.647 10.8172 13.6986 9.69763 13.4666 8.80072C13.2562 7.98744 12.7471 7.30254 12.0398 6.88148C11.4313 6.51916 10.5653 6.3445 9.65984 6.40146ZM9.67984 7.83258C8.72124 7.94858 8.2096 8.31182 7.9614 9.05262C7.86562 9.33852 7.83286 9.57962 7.83262 10.0005C7.83228 10.5702 7.9247 10.9786 8.13166 11.3219C8.40426 11.7741 8.84432 12.0404 9.48984 12.1439C9.72642 12.1819 10.3449 12.1755 10.5798 12.1326C10.9604 12.0633 11.2583 11.9388 11.4948 11.7504C11.7527 11.5448 11.9232 11.2927 12.0392 10.9449C12.1391 10.6454 12.1677 10.4351 12.1677 10.0005C12.1677 9.46672 12.0969 9.11125 11.9214 8.76362C11.7869 8.49718 11.4942 8.20664 11.2246 8.07208C11.0698 7.99482 10.7948 7.90754 10.5898 7.87062C10.417 7.83948 9.82666 7.8148 9.67984 7.83258Z" fill="#1D283D"/>
</svg>
