<svg width="20" height="21" viewBox="0 0 20 21" fill="none" xmlns="http://www.w3.org/2000/svg">
<path fill-rule="evenodd" clip-rule="evenodd" d="M5.78961 2.73023C4.09489 2.80091 2.97351 3.75717 2.71931 5.34841C2.67871 5.60261 2.66131 6.07331 2.68139 6.37463C2.74085 7.26697 3.02737 7.94989 3.56773 8.48717C3.89643 8.81399 4.07549 8.91679 4.31531 8.91633C4.50971 8.91597 4.67779 8.85096 4.80553 8.72669C5.00615 8.53153 5.07973 8.27908 5.01111 8.02128C4.96743 7.8572 4.89115 7.74769 4.72175 7.6059C4.51533 7.43309 4.41259 7.30444 4.30709 7.08656C4.02009 6.49384 4.03303 5.53969 4.33609 4.94655C4.43417 4.75463 4.69769 4.49111 4.88961 4.39303C5.20853 4.23009 5.46223 4.17773 5.99961 4.16401C6.46601 4.15209 6.54773 4.13473 6.69861 4.01545C7.03147 3.75233 7.07257 3.28523 6.79127 2.96239C6.67973 2.83439 6.50641 2.75795 6.27759 2.73581C6.17421 2.72581 6.05361 2.71915 6.00961 2.72101C5.96561 2.72287 5.86661 2.72701 5.78961 2.73023ZM13.6938 2.73623C13.3156 2.77415 13.0501 3.03591 13.0243 3.39617C13.0067 3.64197 13.104 3.86005 13.3006 4.01545C13.4515 4.13473 13.5332 4.15209 13.9996 4.16401C14.537 4.17773 14.7907 4.23009 15.1096 4.39303C15.3015 4.49111 15.5651 4.75463 15.6631 4.94655C15.8055 5.22525 15.8724 5.50537 15.8923 5.90655C15.9149 6.36195 15.8458 6.76926 15.6921 7.08656C15.5866 7.30444 15.4839 7.43309 15.2775 7.6059C15.1081 7.74769 15.0318 7.8572 14.9881 8.02128C14.9515 8.15887 14.9524 8.26496 14.9913 8.396C15.0858 8.71408 15.3542 8.91571 15.6839 8.91633C15.9237 8.91679 16.1028 8.81399 16.4315 8.48717C16.8652 8.05597 17.1152 7.57336 17.2497 6.90773C17.3604 6.35974 17.3516 5.62125 17.2279 5.08023C16.9278 3.76819 15.9385 2.90755 14.5596 2.75911C14.2813 2.72915 13.8722 2.71835 13.6938 2.73623ZM9.61961 4.09795C8.96073 4.13873 8.42845 4.27691 7.91961 4.53931C7.59963 4.70433 7.34703 4.88913 7.08961 5.14655C6.43637 5.79979 6.09549 6.644 6.04177 7.74156C5.97375 9.13111 6.32099 10.2011 7.08857 10.9671C7.67543 11.5528 8.39491 11.8782 9.36961 11.9988C9.66593 12.0355 10.3962 12.03 10.6996 11.9888C11.4847 11.8822 12.0332 11.6721 12.5658 11.2741C13.3416 10.6944 13.8125 9.80919 13.9425 8.68655C13.9752 8.40351 13.9752 7.7096 13.9425 7.42656C13.8297 6.45237 13.4726 5.67553 12.8741 5.10272C12.2243 4.48067 11.4205 4.16163 10.3396 4.09673C9.98185 4.07525 9.98693 4.07523 9.61961 4.09795ZM9.51961 5.54589C9.23253 5.58395 9.13961 5.60389 8.91729 5.67511C8.30439 5.87143 7.87621 6.27583 7.65577 6.86655C7.42607 7.48207 7.40113 8.40651 7.59615 9.07671C7.75983 9.63927 8.10387 10.0669 8.58961 10.3115C9.14339 10.5904 10.0653 10.6737 10.8192 10.5128C11.7679 10.3105 12.3125 9.72269 12.4927 8.70655C12.5435 8.42021 12.5429 7.68736 12.4917 7.40656C12.2961 6.33422 11.725 5.75655 10.6802 5.57409C10.377 5.52115 9.81013 5.50738 9.51961 5.54589ZM4.34961 10.1346C3.43373 10.3348 2.56023 10.6878 1.79961 11.165C1.48921 11.3597 1.33911 11.4779 1.16927 11.6614C0.667672 12.2032 0.532052 12.916 0.796232 13.6221C0.979512 14.112 1.44083 14.5933 1.95471 14.8309C2.09051 14.8936 2.12941 14.9026 2.27007 14.9035C2.40903 14.9044 2.44835 14.8962 2.56325 14.8425C2.72125 14.7685 2.83809 14.6544 2.91403 14.4998C2.96363 14.3988 2.96959 14.365 2.96939 14.1866C2.96921 14.0076 2.96343 13.9756 2.91443 13.8823C2.83245 13.7262 2.74929 13.6429 2.58557 13.5531C2.29123 13.3915 2.09961 13.1487 2.09961 12.9373C2.09961 12.6824 2.30399 12.4976 2.98229 12.139C3.48935 11.871 3.99835 11.6868 4.61961 11.5465C4.80111 11.5055 4.99199 11.4505 5.04379 11.4243C5.16603 11.3625 5.28781 11.2345 5.35557 11.0966C5.40277 11.0005 5.40961 10.9625 5.40961 10.7966C5.40961 10.6323 5.40235 10.5911 5.35599 10.4922C5.29019 10.3517 5.15471 10.2167 5.00741 10.1446C4.84537 10.0653 4.67795 10.0628 4.34961 10.1346ZM15.0681 10.113C14.5684 10.2857 14.415 10.9124 14.7795 11.2916C14.8987 11.4156 15.0107 11.4632 15.3796 11.5465C16.1458 11.7195 16.7936 11.9798 17.4134 12.3637C17.6903 12.5352 17.7874 12.6191 17.8471 12.7389C17.9191 12.8836 17.9169 12.9957 17.8386 13.1523C17.7637 13.3022 17.6147 13.4427 17.4137 13.5531C17.2499 13.6429 17.1668 13.7262 17.0848 13.8823C17.0358 13.9756 17.03 14.0076 17.0298 14.1866C17.0296 14.365 17.0356 14.3988 17.0852 14.4998C17.1611 14.6544 17.278 14.7685 17.436 14.8425C17.5509 14.8962 17.5902 14.9044 17.7292 14.9035C17.8698 14.9026 17.9087 14.8936 18.0445 14.8309C18.5584 14.5933 19.0197 14.112 19.203 13.6221C19.4204 13.0412 19.3715 12.4692 19.0614 11.9653C18.8728 11.6588 18.6351 11.4381 18.1996 11.1651C17.4081 10.669 16.5169 10.3128 15.6019 10.1269C15.3115 10.0679 15.2064 10.0652 15.0681 10.113ZM9.63961 12.7087C7.81221 12.7897 6.12537 13.3307 4.64529 14.3104C4.37825 14.4872 4.03741 14.8085 3.90193 15.0112C3.55029 15.5373 3.43753 16.1574 3.58731 16.7415C3.84329 17.7399 4.71519 18.4963 5.84781 18.7025L6.08961 18.7466H9.99961H13.9096L14.1514 18.7025C15.285 18.4961 16.143 17.7514 16.4152 16.7376C16.4602 16.5701 16.4665 16.507 16.4665 16.2266C16.4665 15.9442 16.4603 15.883 16.4136 15.7066C16.3506 15.4686 16.183 15.1217 16.0398 14.9328C15.7326 14.5278 15.1329 14.1117 14.2196 13.6699C13.1524 13.1537 12.0955 12.8586 10.9196 12.7485C10.6003 12.7186 9.90455 12.697 9.63961 12.7087ZM9.52961 14.1482C9.48561 14.1525 9.33711 14.1657 9.19961 14.1775C7.91837 14.2879 6.49981 14.7882 5.44459 15.5018C5.21417 15.6576 5.10569 15.7694 5.02505 15.9341C4.97739 16.0314 4.96993 16.0709 4.96979 16.2266C4.96963 16.3936 4.97503 16.4179 5.04493 16.5643C5.17931 16.8457 5.44997 17.0733 5.81961 17.2155C6.08475 17.3176 6.03381 17.3163 9.99961 17.3163C13.9654 17.3163 13.9145 17.3176 14.1796 17.2155C14.5493 17.0733 14.8199 16.8457 14.9543 16.5643C15.0242 16.4179 15.0296 16.3936 15.0294 16.2266C15.0293 16.0696 15.022 16.0317 14.9725 15.9304C14.8666 15.714 14.6425 15.5311 14.1096 15.2263C13.1238 14.6624 11.9977 14.3019 10.8296 14.1764C10.6266 14.1545 9.67605 14.134 9.52961 14.1482Z" fill="white"/>
</svg>
