<svg width="20" height="20" viewBox="0 0 20 20" fill="none" xmlns="http://www.w3.org/2000/svg">
<path fill-rule="evenodd" clip-rule="evenodd" d="M3.3598 1.01333C3.3213 1.01737 3.19294 1.03873 3.07454 1.06077C2.01798 1.25751 1.27258 2.00169 1.05848 3.07355C0.976602 3.48349 0.982962 4.15989 1.07244 4.55955C1.30408 5.59409 2.0245 6.29815 3.06588 6.50771C3.34988 6.56485 3.75794 6.58605 4.07908 6.56033C4.83342 6.49991 5.3688 6.27251 5.82078 5.82053C6.27276 5.36855 6.50016 4.83317 6.56058 4.07883C6.60896 3.47469 6.5159 2.88589 6.29882 2.42265C5.93098 1.63771 5.21578 1.14733 4.25336 1.02021C4.10818 1.00103 3.51956 0.996493 3.3598 1.01333ZM3.5098 2.44025C2.91826 2.50681 2.5871 2.79511 2.46532 3.34955C2.42192 3.54709 2.42346 4.02079 2.46818 4.22955C2.5669 4.69049 2.81954 4.95937 3.2698 5.08277C3.48424 5.14153 4.05136 5.14727 4.26924 5.09287C4.71364 4.98195 4.9822 4.71339 5.09312 4.26899C5.1475 4.05115 5.14178 3.48403 5.08304 3.26955C5.022 3.04669 4.95404 2.91721 4.82492 2.77775C4.69208 2.63425 4.47102 2.51867 4.2398 2.47177C4.04384 2.43205 3.71066 2.41765 3.5098 2.44025ZM3.40254 7.58123C2.42134 7.69043 1.57314 8.37707 1.26046 9.31533C1.12124 9.73303 1.1298 9.47355 1.1298 13.2796C1.1298 16.4423 1.13248 16.7237 1.16426 16.8915C1.3729 17.9927 2.23998 18.8266 3.33714 18.9813C3.59482 19.0176 4.0439 18.9945 4.2898 18.9322C4.77648 18.809 5.1878 18.5723 5.5262 18.2208C5.84794 17.8865 6.05072 17.5159 6.18352 17.0196L6.229 16.8496L6.2351 13.3796C6.24178 9.56861 6.24624 9.72645 6.12156 9.34493C5.83162 8.45769 5.10074 7.80063 4.20404 7.62111C3.96544 7.57335 3.62546 7.55643 3.40254 7.58123ZM12.9598 7.57123C12.6312 7.59929 12.3988 7.62923 12.1892 7.67053C10.5815 7.98723 9.20354 8.96195 8.35758 10.3808C8.03624 10.9198 7.79644 11.5511 7.67078 12.189C7.57272 12.6868 7.5698 12.7627 7.5698 14.8196V16.7496L7.61502 16.9538C7.82742 17.913 8.50304 18.6413 9.42842 18.9084C9.79576 19.0145 10.3461 19.0282 10.6998 18.9401C11.6875 18.6942 12.3961 17.9751 12.6317 16.9796C12.6638 16.8436 12.6682 16.6574 12.6785 14.9896L12.6898 13.1496L12.736 13.0476C12.7938 12.9199 12.9202 12.7945 13.048 12.7382C13.1601 12.6887 13.344 12.6789 13.4698 12.7157C13.5902 12.7509 13.7373 12.8744 13.8078 12.9996L13.8698 13.1096L13.881 14.9196C13.8933 16.922 13.8902 16.8718 14.0273 17.275C14.296 18.0652 14.9465 18.68 15.7553 18.9084C16.0241 18.9843 16.2294 19.0062 16.5571 18.9938C17.1997 18.9697 17.7569 18.7326 18.221 18.286C18.5702 17.9499 18.802 17.5485 18.9352 17.0496L18.9886 16.8496L18.9956 14.9296C19.0004 13.6018 18.9955 12.9325 18.9798 12.7596C18.8005 10.7887 17.623 9.06547 15.8443 8.17065C15.2574 7.87537 14.677 7.69817 14.0098 7.61051C13.7754 7.57971 13.1392 7.55591 12.9598 7.57123ZM3.4127 9.03123C3.00922 9.12891 2.64796 9.51187 2.58128 9.91259C2.56472 10.0122 2.56004 10.9551 2.56414 13.3696L2.5698 16.6896L2.62326 16.8271C2.92658 17.6078 3.89518 17.8227 4.47906 17.2388C4.61472 17.1032 4.7096 16.9484 4.7728 16.7596C4.80788 16.6548 4.8099 16.4938 4.81518 13.3711C4.8213 9.75515 4.8257 9.89501 4.69736 9.62939C4.60044 9.42879 4.37936 9.20857 4.1798 9.11381C3.9399 8.99989 3.66458 8.97025 3.4127 9.03123ZM12.8219 9.02241C12.4361 9.06273 11.9747 9.18535 11.593 9.34895C10.1652 9.96095 9.17742 11.3079 9.02076 12.8567C8.99142 13.1467 8.9923 16.5413 9.02174 16.6836C9.09722 17.0482 9.398 17.3858 9.76092 17.5131C9.94858 17.5789 10.2411 17.5869 10.4298 17.5313C10.7988 17.4227 11.0886 17.1367 11.212 16.7596C11.2452 16.658 11.2489 16.5064 11.2601 14.7896C11.2737 12.7227 11.2651 12.8505 11.4136 12.4996C11.6616 11.9132 12.1767 11.4731 12.8098 11.3067C13.0121 11.2535 13.549 11.2541 13.7598 11.3077C14.1344 11.403 14.428 11.5688 14.701 11.8396C14.9904 12.1266 15.162 12.4216 15.2653 12.8096C15.3068 12.9657 15.3081 13.0142 15.3191 14.8196L15.3303 16.6696L15.3752 16.8026C15.504 17.1835 15.8512 17.4817 16.2493 17.5532C16.8165 17.6551 17.3598 17.315 17.533 16.7496C17.5676 16.6368 17.5698 16.5186 17.5698 14.7796C17.5698 12.7381 17.5695 12.7327 17.4391 12.2269C16.9056 10.1577 14.9494 8.80003 12.8219 9.02241Z" fill="#1D283D"/>
</svg>
