<svg width="48" height="48" viewBox="0 0 48 48" fill="none" xmlns="http://www.w3.org/2000/svg">
<path fill-rule="evenodd" clip-rule="evenodd" d="M20.1359 2.42856C17.1843 2.51372 14.2702 2.65306 13.6546 2.73845C10.0492 3.23856 7.22309 6.1152 6.81998 9.69538C6.74078 10.3989 6.53304 15.2647 6.52838 16.5251L6.5279 16.6589L6.24293 16.4217C5.87198 16.113 5.52446 15.983 5.07408 15.9845C4.27661 15.9871 3.65386 16.4737 3.40363 17.2896C3.10358 18.2679 2.77536 20.8292 2.48534 24.4554C2.38858 25.6648 2.40384 29.5214 2.51064 30.8634C2.68901 33.1042 3.04656 36.1871 3.22253 37.0014C4.11394 41.1271 8.06357 44.3756 12.941 44.9949C13.9699 45.1255 16.9166 45.3485 19.7999 45.5139C21.2112 45.5949 26.7886 45.5949 28.1999 45.5139C31.0829 45.3485 34.0299 45.1255 35.0585 44.9949C40.056 44.3605 44.0248 41.0072 44.8246 36.7434C45.0076 35.7679 45.3405 32.7517 45.5132 30.5034C45.5964 29.4203 45.5973 25.4903 45.5145 24.4554C45.4044 23.0788 45.3094 22.0744 45.1877 20.9994C44.757 17.1936 44.5725 16.615 43.6319 16.1209C43.4466 16.0235 43.3476 16.0074 42.9359 16.0074C42.3765 16.0074 42.1855 16.0753 41.7524 16.4281L41.4821 16.6482L41.4518 15.7038C41.2849 10.4951 41.2258 9.59098 40.9915 8.65733C40.4307 6.4224 38.9327 4.57152 36.8399 3.52772C36.1601 3.18864 35.5437 2.97082 34.8719 2.8321C34.1809 2.68944 33.5284 2.64336 30.0479 2.49149C28.9807 2.44488 21.2664 2.39592 20.1359 2.42856ZM22.1519 5.83824C19.842 5.86464 15.2725 6.03072 14.3279 6.12264C13.1019 6.24188 11.9292 6.87634 11.1618 7.83538C10.5867 8.55413 10.3146 9.26775 10.2254 10.2913C10.1211 11.4865 10.0058 14.6596 9.95467 17.7376L9.92193 19.7078L10.7089 20.38C13.5034 22.7666 16.602 25.1397 19.4159 27.0479C20.5594 27.8234 21.4486 28.2198 22.5599 28.4497C23.1355 28.5688 24.8549 28.5682 25.4399 28.4487C26.5439 28.2231 27.439 27.8244 28.5839 27.0479C31.391 25.1442 34.5032 22.7609 37.2909 20.38L38.0779 19.7078L38.0451 17.7376C37.994 14.6596 37.8787 11.4865 37.7744 10.2913C37.6852 9.26775 37.4131 8.55413 36.838 7.83538C36.0707 6.87639 34.8981 6.24202 33.6719 6.1226C32.0091 5.96064 25.5013 5.80004 22.1519 5.83824ZM18.5882 11.0931C18.2532 11.2219 17.8627 11.5862 17.686 11.935C17.5567 12.1901 17.5439 12.2587 17.5439 12.6954C17.5439 13.1106 17.5598 13.2065 17.662 13.4065C17.8975 13.8676 18.2941 14.2087 18.7495 14.3417C19.0339 14.4248 28.9659 14.4248 29.2503 14.3417C29.7071 14.2082 30.1064 13.8641 30.3354 13.4065C30.5074 13.063 30.5277 12.462 30.3807 12.0714C30.2322 11.6769 29.7979 11.2401 29.4101 11.0952L29.1323 10.9914L23.9861 10.9939C18.9454 10.9963 18.8348 10.9984 18.5882 11.0931ZM18.7775 18.7891C18.4806 18.861 18.0836 19.1209 17.8827 19.3748C17.805 19.473 17.6895 19.6819 17.626 19.8391C17.4694 20.2269 17.4873 20.7777 17.669 21.1674C17.8957 21.6532 18.3785 22.0262 18.9116 22.1273C19.2557 22.1926 28.7441 22.1926 29.0882 22.1273C29.6213 22.0262 30.1041 21.6532 30.3308 21.1674C30.5125 20.7777 30.5304 20.2269 30.3738 19.8391C30.156 19.2999 29.72 18.9091 29.1996 18.7867C28.8029 18.6934 19.1638 18.6956 18.7775 18.7891ZM6.17294 21.8955C5.78794 25.5495 5.73619 27.9679 5.97797 31.0074C6.1188 32.778 6.46488 35.7366 6.59861 36.3133C7.21709 38.9801 9.89688 41.0914 13.2719 41.5708C13.9602 41.6687 16.9182 41.898 19.0799 42.0212C22.5454 42.2187 25.4544 42.2187 28.9199 42.0212C31.0816 41.898 34.0396 41.6687 34.7279 41.5708C37.7039 41.148 40.1945 39.4342 41.1301 37.1653C41.3612 36.605 41.4658 36.0939 41.6388 34.6794C42.1985 30.1039 42.2947 27.4209 42.0218 23.9994C41.9394 22.9657 41.7564 21.1518 41.7319 21.1249C41.7226 21.1148 41.5469 21.2578 41.3414 21.4427C37.4085 24.9827 30.8905 29.916 28.8239 30.9169C27.4325 31.5908 26.1216 31.9321 24.6359 32.0072C22.6431 32.108 20.9281 31.7655 19.1759 30.9169C17.1113 29.9169 10.592 24.9832 6.66557 21.4491C6.46406 21.2677 6.2892 21.1194 6.27696 21.1194C6.26472 21.1194 6.21792 21.4687 6.17294 21.8955Z" fill="#CC554D"/>
</svg>
