<svg width="56" height="56" viewBox="0 0 56 56" fill="none" xmlns="http://www.w3.org/2000/svg">
<path fill-rule="evenodd" clip-rule="evenodd" d="M28.0034 0C43.4622 0 56 12.5378 56 28.0034C56 43.4622 43.4622 56 28.0034 56C12.5378 56 0 43.4622 0 28.0034C0 12.5378 12.5378 0 28.0034 0ZM15.1877 23.9167C19.5861 19.9724 24.0591 23.056 20.1825 27.6103C17.8105 30.389 16.0077 30.0162 16.0077 30.0162L16.7668 37.2814C16.7668 37.2814 20.4333 37.8507 24.1133 33.5065C24.1133 33.5065 26.6751 39.5585 22.7849 43.0352C18.9016 46.5119 12.0702 42.4659 10.0845 35.7362C8.09198 28.9996 8.18686 27.4544 8.18686 27.4544L6.91952 26.5666C6.02493 35.6887 10.3623 49.704 18.617 51.7168C23.3678 52.8757 28.2474 50.3072 30.023 47.6505C32.9304 43.286 31.5411 37.8507 29.7722 35.3838C29.7722 35.3838 34.767 35.8311 37.0713 30.328C39.3755 24.8317 40.7377 22.2089 43.8688 24.8927C46.9931 27.5764 45.3191 45.78 34.6993 36.9357C34.6993 36.9357 33.5607 42.2423 37.2 44.4584C40.8326 46.6678 46.7423 43.2521 48.4502 38.9553C50.1581 34.6586 51.3847 27.0749 48.701 21.0364C46.0172 15.0047 40.2972 13.961 37.1323 16.7736C33.9741 19.5861 32.8016 22.873 32.2391 23.9438C31.6699 25.0214 29.6774 30.1111 26.4514 28.8438C28.1864 19.1456 19.8301 12.7547 12.5785 18.5899L15.1877 23.9167ZM27.5764 5.15745C29.1623 5.15745 30.45 6.59421 30.45 8.36306C30.45 10.1387 29.1623 11.5755 27.5764 11.5755C25.9838 11.5755 24.6961 10.1387 24.6961 8.36306C24.6961 6.59421 25.9838 5.15745 27.5764 5.15745ZM18.9965 9.45419C18.9965 9.45419 26.9258 17.5462 36.2512 8.4105C36.2512 8.4105 39.5653 9.42708 40.4192 11.4128C40.4192 11.4128 36.4274 17.2005 30.023 17.8308C23.6185 18.4543 20.4807 14.8624 18.9965 9.45419Z" fill="#CC554D"/>
</svg>
