<svg width="40" height="40" viewBox="0 0 40 40" fill="none" xmlns="http://www.w3.org/2000/svg">
<path fill-rule="evenodd" clip-rule="evenodd" d="M19.4745 1.38014C19.0581 1.51422 18.6903 1.87202 18.5404 2.2891C18.435 2.58214 18.4527 2.92986 18.6002 3.46013C19.1254 5.34909 19.0559 7.03597 18.3753 8.91778C18.2253 9.33218 18.1953 9.46301 18.1953 9.70033C18.1953 10.2489 18.4935 10.7322 18.9861 10.9817C19.1962 11.0882 19.2579 11.1001 19.5997 11.1001C19.9267 11.1001 20.0111 11.0854 20.2045 10.9947C20.6553 10.7834 20.8366 10.5421 21.1231 9.77245C21.5741 8.56105 21.7997 7.25654 21.7997 5.86109C21.7997 4.70606 21.6875 3.85806 21.392 2.78014C21.2361 2.2117 21.1092 1.94706 20.893 1.73994C20.5207 1.38314 19.9303 1.23338 19.4745 1.38014ZM27.4111 7.57582C26.8904 7.74586 26.5007 8.17549 26.4075 8.68221C26.3895 8.78006 26.3913 9.05814 26.4113 9.30014C26.4917 10.269 26.3077 11.053 25.7962 11.9201C25.5797 12.2873 25.5139 12.4972 25.5141 12.8212C25.5142 13.2291 25.6341 13.5213 25.9162 13.8016C26.2509 14.1341 26.4541 14.2188 26.9197 14.2195C27.3401 14.2201 27.5455 14.1532 27.8409 13.9191C28.2917 13.5621 28.9377 12.1734 29.1617 11.0801C29.2696 10.5532 29.3117 9.42773 29.2432 8.90014C29.1641 8.29134 28.8962 7.89149 28.4069 7.65213C28.1457 7.52433 27.6784 7.48849 27.4111 7.57582ZM34.917 10.3205C34.498 10.3914 34.0716 10.7213 33.8835 11.1201C33.7932 11.3115 33.7797 11.3923 33.7801 11.7401C33.7805 12.1003 33.7917 12.1614 33.8926 12.3537C34.0424 12.6391 34.3139 12.903 34.5919 13.0333L34.8197 13.1401L36.0797 13.1535C37.6635 13.1703 37.8059 13.1443 38.2139 12.7639C38.4309 12.5617 38.5517 12.358 38.6255 12.0699C38.8316 11.2651 38.3005 10.4561 37.4785 10.3227C37.1849 10.2751 35.1954 10.2733 34.917 10.3205ZM10.7597 11.6036C9.55646 11.7579 8.46202 12.4253 7.81374 13.4001C7.1589 14.3849 5.49418 17.5875 4.69814 19.394C2.78282 23.7407 1.67842 27.8257 1.40066 31.5909C1.2827 33.1896 1.31838 35.0554 1.47958 35.7201C1.65458 36.4417 2.17058 37.2593 2.74734 37.729C3.6733 38.483 4.35742 38.6781 6.0797 38.6793C11.9743 38.6835 18.4515 36.6454 25.4997 32.5686C26.5015 31.9891 26.6975 31.8574 27.0442 31.5304C27.6062 31.0002 28.0287 30.2897 28.2277 29.5401C28.3199 29.193 28.3343 29.0583 28.3368 28.5201C28.339 28.0472 28.322 27.8245 28.265 27.5812C28.1592 27.1297 27.9849 26.6948 27.7645 26.3324C27.3219 25.6044 25.2752 22.813 24.1336 21.3801C22.2605 19.0293 21.1071 17.8656 18.9397 16.1401C17.1096 14.6831 13.8223 12.3512 13.0997 11.9974C12.3593 11.6349 11.5621 11.5007 10.7597 11.6036ZM10.7918 14.5358C10.5587 14.6317 10.3648 14.772 10.2317 14.9412C10.1905 14.9936 9.9807 15.3478 9.7655 15.7283C6.7123 21.1264 4.89094 26.1945 4.36338 30.7601C4.23142 31.9021 4.1889 32.7525 4.20746 33.8801C4.2237 34.8708 4.23074 34.9535 4.31474 35.1444C4.4207 35.3853 4.63638 35.6081 4.8597 35.7074C4.99518 35.7677 5.16682 35.7808 5.9797 35.7929C11.2933 35.8721 17.3652 33.9527 24.0997 30.0652C25.0564 29.5129 25.2609 29.3416 25.3974 28.9778C25.5165 28.6605 25.5027 28.1872 25.3667 27.9201C25.2287 27.6493 24.2093 26.2161 23.105 24.7401C20.1923 20.8475 18.6315 19.3431 14.2797 16.2336C12.7789 15.1612 11.92 14.5881 11.6998 14.5119C11.4131 14.4128 11.0688 14.4219 10.7918 14.5358ZM31.5997 19.4414C31.0838 19.4867 30.5035 19.6185 30.3042 19.7357C29.9304 19.9556 29.6309 20.4044 29.5806 20.8201C29.511 21.3959 29.8397 21.9953 30.3747 22.2686C30.6416 22.4049 31.0477 22.4312 31.5397 22.3441C32.4204 22.1883 33.2133 22.3168 34.1397 22.7657C34.4918 22.9363 34.5085 22.9401 34.8997 22.9393C35.2418 22.9385 35.3287 22.9243 35.4997 22.8406C35.7691 22.7087 36.0614 22.4087 36.1922 22.1296C36.284 21.9337 36.2997 21.8474 36.2997 21.5393C36.2997 21.2121 36.2874 21.1535 36.168 20.911C36.0066 20.5832 35.8148 20.4109 35.3496 20.176C34.1857 19.5883 32.8676 19.3301 31.5997 19.4414Z" fill="#5C3E70"/>
</svg>
