<svg width="20" height="21" viewBox="0 0 20 21" fill="none" xmlns="http://www.w3.org/2000/svg">
<g clip-path="url(#clip0_3872_376)">
<path fill-rule="evenodd" clip-rule="evenodd" d="M6.97968 1.41819C5.83266 1.44707 4.00208 1.54475 3.63472 1.59669C2.18364 1.80183 1.02996 2.98817 0.860381 4.44955C0.833121 4.68441 0.767501 5.96663 0.730041 6.99605C0.620181 10.0153 0.643601 13.0509 0.800081 16.076C0.853801 17.1146 0.873521 17.2711 0.999441 17.656C1.3826 18.8276 2.42584 19.7074 3.62968 19.8743C4.05692 19.9335 6.23542 20.0529 6.48174 20.0305C6.6269 20.0174 6.7489 19.9598 6.87828 19.8435C7.17778 19.5742 7.1839 19.1013 6.89162 18.8132C6.70098 18.6252 6.63236 18.6109 5.75968 18.5761C5.17762 18.5529 4.45486 18.5104 4.03968 18.4751C3.51104 18.4301 3.1859 18.2928 2.84818 17.972C2.5524 17.691 2.37204 17.3637 2.2994 16.976C2.28806 16.9155 2.26126 16.542 2.23986 16.146C2.05152 12.6629 2.05152 8.80921 2.23986 5.32605C2.28026 4.57889 2.29236 4.47221 2.3611 4.25801C2.51228 3.78681 2.89342 3.36147 3.34996 3.15447C3.6041 3.03923 3.76058 3.01305 4.47968 2.96541C5.94656 2.86825 7.39476 2.82957 9.10968 2.84177C10.5776 2.85219 10.593 2.85325 10.8876 2.96441C11.1562 3.06577 11.3018 3.17085 11.8697 3.67323C12.2109 3.97509 13.0378 4.80243 13.3017 5.10605C13.8507 5.73755 14.3776 6.44331 15.0416 7.43655C15.2146 7.69533 15.3817 7.93277 15.4129 7.96419C15.6186 8.17127 15.9425 8.23095 16.206 8.11033C16.5841 7.93721 16.7385 7.49343 16.5476 7.12835C16.3805 6.80883 15.3374 5.33039 14.8526 4.72605C14.3704 4.12491 13.7716 3.47903 13.2276 2.97343C12.1962 2.01489 11.86 1.77679 11.2597 1.57983C10.9202 1.46847 10.6956 1.43455 10.1697 1.41517C9.60048 1.39421 7.86726 1.39585 6.97968 1.41819ZM8.23968 4.74353C8.19018 4.75715 8.11794 4.78363 8.07912 4.80235C7.87294 4.90183 7.04102 5.69803 6.74752 6.07679C6.4848 6.41579 6.23254 6.81633 6.07702 7.14135C6.05194 7.19375 6.0252 7.23425 6.01758 7.23135C6.00998 7.22843 5.8847 7.1159 5.73918 6.98129C5.39938 6.6669 5.32124 6.62605 5.05968 6.62605C4.89718 6.62605 4.85376 6.63352 4.75964 6.67767C4.3731 6.859 4.227 7.33085 4.44542 7.69243C4.53784 7.84541 5.81764 9.03253 5.97108 9.10761C6.24548 9.24187 6.59446 9.17163 6.80366 8.94007C6.89432 8.83973 6.90706 8.81509 7.0486 8.46605C7.29202 7.86581 7.60256 7.30007 7.87746 6.95605C8.02764 6.76811 8.45264 6.34435 8.72282 6.11313C8.9694 5.90211 9.03606 5.82095 9.08776 5.66868C9.12872 5.54805 9.12868 5.32395 9.08768 5.20319C9.01346 4.98459 8.81956 4.80677 8.59028 4.74705C8.45012 4.71053 8.3627 4.70967 8.23968 4.74353ZM8.18968 9.73089C8.0561 9.77923 7.98432 9.83057 7.6771 10.0975C6.99222 10.6927 6.51506 11.2807 6.15328 11.9753C6.0872 12.1022 6.0306 12.2093 6.02752 12.2133C6.02444 12.2172 5.89802 12.1062 5.74662 11.9665C5.59522 11.8268 5.42598 11.6886 5.37052 11.6594C5.28004 11.6118 5.24812 11.6063 5.05968 11.6062C4.87552 11.6061 4.83738 11.6122 4.74968 11.656C4.61338 11.7242 4.4682 11.8732 4.40344 12.0113C4.35678 12.1109 4.34996 12.1498 4.35182 12.306C4.3542 12.5085 4.3881 12.6083 4.5023 12.7492C4.6118 12.8843 5.83402 14.0095 5.9289 14.0625C6.19352 14.2104 6.53042 14.1708 6.75818 13.965C6.86538 13.8682 6.91228 13.7853 7.04044 13.466C7.46902 12.3985 7.86468 11.835 8.68968 11.1172C9.06568 10.7901 9.13838 10.6571 9.115 10.3392C9.08914 9.98719 8.8128 9.72441 8.4467 9.70363C8.3279 9.69689 8.26534 9.70351 8.18968 9.73089ZM15.9497 9.96835C15.4966 10.0496 15.0562 10.2609 14.7239 10.5563C14.6657 10.608 13.5751 11.7153 12.3002 13.0171C10.5223 14.8324 9.97044 15.4073 9.93138 15.4849C9.88798 15.5711 9.1691 18.1952 9.1021 18.512C8.9717 19.1286 9.38304 19.81 10.004 20.0062C10.2019 20.0687 10.4493 20.0893 10.6097 20.0566C10.6757 20.0431 11.39 19.8622 12.1971 19.6546C13.1974 19.3972 13.6911 19.2614 13.7483 19.2279C13.8277 19.1814 18.3458 14.9248 18.6179 14.6402C18.9712 14.2706 19.188 13.858 19.2927 13.356C19.346 13.1005 19.3403 12.5723 19.2814 12.311C19.2189 12.0336 19.1716 11.897 19.0496 11.6415C18.7603 11.0353 18.2657 10.5312 17.6619 10.2271C17.4605 10.1258 17.0795 10.0045 16.8473 9.96793C16.5992 9.92885 16.1688 9.92905 15.9497 9.96835ZM16.1776 11.3824C16.105 11.3959 15.9768 11.441 15.8927 11.4826C15.7427 11.5567 15.6981 11.6007 13.4748 13.8688L11.2097 16.1795L10.8855 17.382C10.7072 18.0433 10.5633 18.5863 10.5657 18.5887C10.5681 18.5911 11.1214 18.4509 11.7954 18.2771C12.6113 18.0668 13.0353 17.9487 13.0641 17.9236C13.1971 17.808 17.6026 13.6286 17.6669 13.557C17.9439 13.2485 17.9785 12.6867 17.7486 12.2279C17.4538 11.6392 16.7708 11.2716 16.1776 11.3824Z" fill="white"/>
</g>
<defs>
<clipPath id="clip0_3872_376">
<rect width="20" height="20" fill="white" transform="translate(0 0.736328)"/>
</clipPath>
</defs>
</svg>
