<svg width="157" height="157" viewBox="0 0 157 157" fill="none" xmlns="http://www.w3.org/2000/svg">
<path d="M0 0H52.6646C65.8355 0 76.5127 10.6772 76.5127 23.8481V76.5127H23.8481C10.6772 76.5127 0 65.8355 0 52.6646V0Z" fill="#CC554D" fill-opacity="0.08"/>
<path d="M157 0H104.335C91.1645 0 80.4873 10.6772 80.4873 23.8481V76.5127H133.152C146.323 76.5127 157 65.8355 157 52.6646V0Z" fill="#CC554D" fill-opacity="0.08"/>
<path d="M0 157H52.6646C65.8355 157 76.5127 146.323 76.5127 133.152V80.4873H23.8481C10.6772 80.4873 0 91.1645 0 104.335V157Z" fill="#CC554D" fill-opacity="0.08"/>
<path d="M157 157H104.335C91.1645 157 80.4873 146.323 80.4873 133.152V80.4873H133.152C146.323 80.4873 157 91.1645 157 104.335V157Z" fill="#CC554D" fill-opacity="0.08"/>
</svg>
