<svg width="27" height="23" viewBox="0 0 27 23" fill="none" xmlns="http://www.w3.org/2000/svg">
<path fill-rule="evenodd" clip-rule="evenodd" d="M12.1068 0.00451419C9.97131 0.0750462 7.25713 0.256514 6.27456 0.394442C3.37076 0.802066 1.02565 2.80983 0.502691 5.33594C0.398363 5.83997 0.187915 7.69435 0.095991 8.91994C-0.031885 10.6248 -0.0319969 11.8447 0.0956551 13.5259C0.186991 14.7294 0.400603 16.6028 0.502691 17.0959C0.937531 19.1965 2.61266 20.9476 4.92129 21.715C5.63369 21.9519 6.11384 22.0398 7.21452 22.1352C10.9625 22.4598 13.3791 22.507 16.4888 22.3167C17.8593 22.2327 19.3654 22.1084 19.871 22.0374C22.0193 21.7358 23.9185 20.5414 24.9482 18.8442C25.2888 18.2829 25.5253 17.6923 25.6425 17.1099C25.7482 16.5856 25.9558 14.746 26.0501 13.4979C26.1773 11.8155 26.1771 10.6207 26.0496 8.91994C25.9587 7.70804 25.7459 5.83269 25.6429 5.33594C25.2971 3.66717 24.1472 2.18221 22.4924 1.26723C21.7089 0.833986 20.7632 0.519686 19.8627 0.393294C19.1467 0.292774 16.7791 0.117214 15.1588 0.0444703C14.4952 0.0146783 12.5643 -0.0106058 12.1068 0.00451419ZM11.4348 2.03488C9.67821 2.09852 6.91539 2.30931 6.29925 2.42674C4.70417 2.73071 3.36547 3.66882 2.76708 4.90194C2.50752 5.43679 2.4476 5.7068 2.29469 7.02994C2.20624 7.79546 2.12456 8.66046 2.06338 9.47994C2.00766 10.226 2.01615 12.3544 2.07806 13.1619C2.16617 14.3118 2.3463 15.9684 2.44847 16.569C2.58749 17.3859 3.04324 18.1697 3.73479 18.7811C4.4242 19.3906 5.32118 19.8187 6.29925 20.0051C7.23974 20.1844 11.138 20.4274 13.0728 20.4274C15.0075 20.4274 18.9058 20.1844 19.8463 20.0051C21.4334 19.7027 22.753 18.7845 23.373 17.5514C23.6086 17.0828 23.682 16.7891 23.7954 15.8616C24.2182 12.4018 24.2364 10.5062 23.8781 7.28194C23.7208 5.86701 23.6628 5.55372 23.4754 5.10953C23.022 4.03447 22.0661 3.17162 20.8008 2.69526C20.0753 2.42215 19.6547 2.35763 17.5808 2.20145C15.1925 2.02161 13.253 1.96905 11.4348 2.03488ZM10.6088 5.49013C10.0669 5.60009 9.63086 5.83787 9.22279 6.24594C8.79363 6.67509 8.53732 7.17601 8.45626 7.74394C8.33387 8.60172 8.27129 11.4544 8.34109 12.9939C8.40642 14.4351 8.44215 14.7662 8.57523 15.1639C8.82429 15.9084 9.44858 16.5493 10.1855 16.817C10.795 17.0385 11.4362 17.0426 12.0375 16.8289C12.6218 16.6213 14.8693 15.3343 16.0128 14.5526C18.7585 12.6755 19.3736 11.3309 18.1986 9.77394C17.495 8.84154 15.8268 7.63244 13.3808 6.28197C12.3427 5.70881 12.0266 5.56655 11.6175 5.48826C11.3606 5.43912 10.8556 5.44004 10.6088 5.49013ZM10.9868 7.46296C10.7413 7.52697 10.5874 7.65148 10.4985 7.85818C10.4482 7.97502 10.43 8.10539 10.3975 8.57937C10.3232 9.66468 10.2952 11.1359 10.3278 12.2449C10.3708 13.7135 10.4206 14.3926 10.4985 14.5737C10.609 14.8305 10.8371 14.9749 11.1327 14.9749C11.2891 14.975 11.3382 14.9588 11.6227 14.8138C12.8658 14.1799 14.5484 13.1607 15.4131 12.5179C16.0233 12.0643 16.5765 11.5407 16.711 11.2894C16.7611 11.1958 16.7346 11.1428 16.5003 10.8682C15.9342 10.2049 14.4875 9.19722 12.5665 8.12852C11.4173 7.48919 11.2143 7.40365 10.9868 7.46296Z" fill="white"/>
</svg>
