<svg width="64" height="64" viewBox="0 0 64 64" fill="none" xmlns="http://www.w3.org/2000/svg">
<path fill-rule="evenodd" clip-rule="evenodd" d="M32 55.8205C45.1557 55.8205 55.8205 45.1557 55.8205 32C55.8205 18.8443 45.1557 8.17954 32 8.17954C18.8443 8.17954 8.17954 18.8443 8.17954 32C8.17954 45.1557 18.8443 55.8205 32 55.8205ZM32 62C48.5685 62 62 48.5685 62 32C62 15.4315 48.5685 2 32 2C15.4315 2 2 15.4315 2 32C2 48.5685 15.4315 62 32 62Z" fill="#471C1A"/>
<path d="M26.6448 22.3226C25.9454 22.6667 24.3862 24.4014 23.694 25.2258L17.0273 19.0968C16.5902 23.6559 13.4936 28.3082 12 30.0645L21.071 30.4946V34.4731L12 35.7634C15.235 38 17.4281 43.8638 18.1202 46.5161L23.694 39.8495L27.1913 42.2151L22.7104 49.8495C27.8689 49.2473 32.8743 51.0323 34.7322 52L33.2022 43.3978C34.6011 43.3118 36.4809 42.5735 37.2459 42.2151L40.4153 50.6022C42.776 46.8172 47.4463 43.7204 49.4863 42.6452L41.9454 38.5591C42.4699 37.957 43.1111 35.7993 43.3661 34.7957L52 37.4839C50.2514 34.7312 50.9071 28.1649 51.4536 25.2258L43.3661 28.8817C43.2787 28.0215 41.9454 26.086 41.2896 25.2258L48.7213 20.172C44.5246 19.0538 40.3424 15.19 38.776 13.3978C38.3388 14.7957 37.2459 22.3226 36.3716 21.5699C35.6721 20.9677 33.5301 20.8172 32.5464 20.8172C32.7213 19.6129 32.9836 14.4373 33.0929 12C30.1202 14.5806 24.1311 15.2975 21.5082 15.3333C22.6011 18.5591 27.5191 21.8925 26.6448 22.3226Z" fill="#CC554D"/>
<path d="M35.1694 32C35.1694 33.6034 33.8483 34.9032 32.2186 34.9032C30.5889 34.9032 29.2678 33.6034 29.2678 32C29.2678 30.3966 30.5889 29.0968 32.2186 29.0968C33.8483 29.0968 35.1694 30.3966 35.1694 32Z" fill="#CC554D"/>
</svg>
