<svg width="48" height="48" viewBox="0 0 48 48" fill="none" xmlns="http://www.w3.org/2000/svg">
<path fill-rule="evenodd" clip-rule="evenodd" d="M19.9444 1.63418C17.4104 1.70292 12.7555 1.94427 12.0268 2.04478C9.44021 2.40147 7.2096 3.98719 6.05482 6.29033C5.72348 6.95114 5.48079 7.6254 5.35599 8.23203C5.24731 8.76051 5.19183 9.43515 5.08964 11.472C4.68106 19.6139 4.68106 28.3861 5.08964 36.528C5.19183 38.5649 5.24731 39.2395 5.35599 39.768C5.55912 40.7554 6.12562 42.0191 6.72231 42.816C8.10034 44.6563 10.0679 45.7612 12.3604 45.982C14.666 46.204 20.3527 46.416 24.0004 46.416C28.622 46.416 35.2406 46.1209 36.5284 45.8575C38.8666 45.3791 40.8784 43.8388 41.946 41.7097C42.429 40.7464 42.6608 39.959 42.7647 38.928C42.8713 37.8704 43.0681 33.3833 43.1562 30C43.2219 27.4754 43.2211 19.8669 43.155 18.984C42.9763 16.5983 42.2898 14.498 41.0732 12.6151C40.5644 11.8277 39.3927 10.2612 38.4769 9.14403C36.8823 7.19878 34.7457 5.07857 32.6164 3.32849C31.5451 2.44798 30.1094 1.84994 28.6564 1.67892C28.0668 1.60956 22.0025 1.57841 19.9444 1.63418ZM19.4404 5.09153C16.9174 5.1665 13.1815 5.37017 12.4084 5.47486C11.9291 5.53975 11.3044 5.74611 10.8964 5.9743C9.74751 6.61678 8.88634 7.84539 8.69131 9.12003C8.63035 9.51871 8.47186 12.5512 8.37773 15.12C8.15957 21.0755 8.15957 26.9246 8.37773 32.88C8.47186 35.4488 8.63035 38.4813 8.69131 38.88C8.93107 40.4474 10.1023 41.8314 11.6164 42.3364C12.1619 42.5183 12.474 42.557 14.3044 42.6695C19.7713 43.0056 25.5755 43.0563 31.0084 42.8154C32.6969 42.7406 35.2083 42.5805 35.6153 42.5219C37.4901 42.2517 39.0345 40.7254 39.3087 38.8719C39.4314 38.0426 39.666 32.4219 39.7442 28.44C39.8327 23.9362 39.7789 19.2068 39.6284 18.264C39.4693 17.2674 39.1676 16.319 38.7301 15.4405C38.0358 14.0465 36.0926 11.5116 34.0597 9.34807C33.0941 8.32054 30.6832 6.12233 30.1175 5.75369C29.5006 5.35174 28.8772 5.15412 28.0198 5.08875C27.3001 5.03383 21.3167 5.0358 19.4404 5.09153ZM20.999 12.0834C20.608 12.2238 19.6878 12.9863 18.6829 14.0026C17.5571 15.1412 16.7227 16.2885 16.0591 17.6104L15.833 18.0608L15.6327 17.8713C14.4862 16.787 14.2867 16.6459 13.7865 16.5654C13.0356 16.4444 12.3521 16.7908 11.9747 17.4834C11.861 17.6921 11.8336 17.8082 11.8171 18.1504C11.7781 18.9612 11.8481 19.0584 13.7353 20.8132C14.5841 21.6023 15.3594 22.3075 15.4582 22.3803C16.0567 22.821 16.9943 22.775 17.5471 22.2779C17.8208 22.0318 17.9509 21.8097 18.2414 21.0921C18.639 20.1103 19.3191 18.7506 19.7161 18.144C20.3028 17.2477 21.1571 16.3233 22.3444 15.3001C22.8397 14.8732 22.9439 14.7576 23.0884 14.4747C23.2446 14.1688 23.2563 14.115 23.2548 13.7089C23.2534 13.3275 23.2356 13.2358 23.115 12.987C22.8247 12.3879 22.3125 12.0518 21.6372 12.0172C21.3359 12.0017 21.1823 12.0177 20.999 12.0834ZM26.2084 17.2026C25.857 17.2805 25.6627 17.3891 25.395 17.657C24.7213 18.3314 24.7216 19.3969 25.3957 20.0717C25.6677 20.344 25.904 20.4695 26.2816 20.5422C26.488 20.5819 27.745 20.5933 30.7684 20.5827L34.9684 20.568L35.2408 20.4403C35.6208 20.2622 35.9235 19.9664 36.1067 19.5944C36.2443 19.3147 36.2609 19.2366 36.2604 18.8685C36.2599 18.5271 36.2384 18.4096 36.1356 18.1863C35.9001 17.6747 35.4808 17.3259 34.9514 17.2013C34.5754 17.1128 26.6081 17.1139 26.2084 17.2026ZM21.2752 24.8695C20.88 24.9352 20.6191 25.0971 19.8712 25.7407C18.2098 27.1709 17.1166 28.5002 16.1681 30.2441L15.8135 30.8961L15.2629 30.3748C14.9601 30.0882 14.5879 29.7692 14.4359 29.6661C13.5978 29.0979 12.4478 29.4141 11.9708 30.3438C11.8663 30.5475 11.8353 30.6837 11.8193 31.008C11.7957 31.4869 11.9026 31.8419 12.165 32.1559C12.252 32.2601 13.0227 32.9958 13.8776 33.7909C15.7056 35.491 15.7131 35.496 16.4404 35.496C16.8506 35.496 16.9546 35.4792 17.1555 35.3803C17.6584 35.1328 17.8768 34.849 18.2117 34.008C18.534 33.1989 19.3803 31.4983 19.7167 30.984C20.2844 30.1163 21.1621 29.1594 22.2004 28.2763C22.8444 27.7286 22.9623 27.5995 23.1174 27.2725C23.6972 26.0498 22.6211 24.6461 21.2752 24.8695ZM26.2901 30.7211C25.8549 30.7959 25.4365 31.0742 25.1849 31.4563C24.9661 31.7886 24.9016 32.008 24.9025 32.4169C24.9038 33.0939 25.2496 33.6448 25.8624 33.9465L26.1823 34.104L30.4313 34.119C33.5171 34.1298 34.7508 34.1187 34.9374 34.0784C36.0126 33.8462 36.5898 32.6042 36.0847 31.6098C35.9347 31.3147 35.5169 30.9368 35.1986 30.8083L34.9204 30.696L30.7204 30.6888C28.4104 30.6848 26.4168 30.6994 26.2901 30.7211Z" fill="#CC554D"/>
</svg>
