<svg width="48" height="48" viewBox="0 0 48 48" fill="none" xmlns="http://www.w3.org/2000/svg">
<path d="M40.8352 24.0017C40.8352 22.7069 40.8252 21.4209 40.8034 20.1445C40.7666 18.0036 40.0844 15.9415 38.8096 14.2885C36.3803 11.1394 34.2293 8.97793 30.8793 6.40179C30.1667 5.85374 29.2833 5.54703 28.3598 5.52623C26.9833 5.49522 25.5435 5.47936 24.0004 5.47935C19.3386 5.47935 15.6104 5.62384 11.7175 5.89788C9.50217 6.05383 7.74805 7.81411 7.60589 10.0229C7.31624 14.5288 7.16392 19.2056 7.16392 24.0017C7.16392 28.7978 7.31624 33.4745 7.60589 37.9805C7.74792 40.1892 9.50191 41.9493 11.7175 42.1055H11.7158C15.6091 42.3793 19.3384 42.524 24.0004 42.524C28.6622 42.524 32.3903 42.3793 36.2833 42.1055C38.499 41.9491 40.2514 40.1889 40.3933 37.9805C40.6831 33.4746 40.8352 28.7979 40.8352 24.0017ZM44.2638 24.0017C44.2638 28.8699 44.1098 33.6196 43.8152 38.1998C43.5629 42.1284 40.4439 45.2492 36.5244 45.5257C32.5514 45.8051 28.7425 45.9526 24.0004 45.9526C19.2582 45.9526 15.4496 45.8051 11.4764 45.5257C7.55691 45.2495 4.43655 42.1285 4.18401 38.1998C3.88961 33.6197 3.73535 28.87 3.73535 24.0017C3.73535 19.1334 3.8896 14.3836 4.18401 9.80357C4.43655 5.87483 7.55674 2.75362 11.4764 2.47768C15.4497 2.19797 19.2584 2.05078 24.0004 2.05078C25.567 2.05078 27.0326 2.06603 28.4368 2.09766C30.0648 2.13433 31.6598 2.67526 32.9703 3.68304C36.5518 6.43727 38.9117 8.8089 41.5233 12.1942C43.2809 14.4728 44.1817 17.2605 44.2303 20.0843V20.0859C44.2525 21.3818 44.2638 22.6874 44.2638 24.0017Z" fill="#CC554D"/>
<path d="M30.0684 22.3359C31.0151 22.3359 31.7826 23.1034 31.7826 24.0502C31.7826 24.997 31.0151 25.7645 30.0684 25.7645H17.9311C16.9843 25.7645 16.2168 24.997 16.2168 24.0502C16.2168 23.1034 16.9843 22.3359 17.9311 22.3359H30.0684Z" fill="#CC554D"/>
<path d="M30.0315 31.5921C30.9781 31.5923 31.7458 32.3597 31.7458 33.3064C31.7455 34.2527 30.9779 35.0204 30.0315 35.0206H17.9311C16.9845 35.0206 16.2171 34.2529 16.2168 33.3064C16.2168 32.3596 16.9843 31.5921 17.9311 31.5921H30.0315ZM25.2553 12.7383C26.2021 12.7383 26.9696 13.5058 26.9696 14.4526C26.9696 15.3993 26.2021 16.1669 25.2553 16.1669H17.9311C16.9843 16.1669 16.2168 15.3993 16.2168 14.4526C16.2168 13.5058 16.9843 12.7383 17.9311 12.7383H25.2553Z" fill="#CC554D"/>
</svg>
