<svg width="48" height="48" viewBox="0 0 48 48" fill="none" xmlns="http://www.w3.org/2000/svg">
<path fill-rule="evenodd" clip-rule="evenodd" d="M10.9844 2.47333C9.34345 2.70762 8.03277 3.3247 7.00273 4.34792C5.66704 5.67478 5.03632 7.40562 5.03589 9.74523C5.0355 11.9106 5.5767 13.5236 6.75385 14.8656L7.01382 15.162L6.72049 15.3612C5.47797 16.205 4.34593 17.5429 3.60045 19.0485C2.8024 20.6605 2.36349 22.6174 2.40841 24.3633C2.42329 24.9411 2.43453 25.0052 2.56672 25.266C2.72766 25.5837 3.06112 25.9078 3.39736 26.0734L3.62445 26.1852H12.3604H21.0964L21.3768 26.0432C21.735 25.8617 22.0906 25.4758 22.221 25.1273C22.4088 24.6255 22.3329 23.0638 22.0574 21.7586C21.4908 19.0752 20.0468 16.7926 18.0137 15.3666L17.715 15.1571L17.97 14.8632C19.0316 13.6395 19.5614 12.254 19.679 10.3932C19.7921 8.6048 19.4569 6.89802 18.7552 5.68923C17.7672 3.98715 16.1531 2.90082 14.0404 2.51595C13.4482 2.40805 11.62 2.38256 10.9844 2.47333ZM28.432 4.38661C27.9662 4.54088 27.53 4.95896 27.3595 5.41482C27.2487 5.71098 27.225 6.23288 27.3093 6.52126C27.4419 6.97486 27.901 7.46317 28.3544 7.6328C28.5934 7.72227 28.818 7.74133 30.356 7.80258C34.3994 7.96362 34.7104 7.99918 35.6039 8.4033C36.5103 8.81322 37.5094 9.81344 37.9206 10.7227C38.2865 11.5317 38.3629 12.1115 38.4742 14.9292C38.5092 15.8128 38.555 16.1158 38.6971 16.4002C38.846 16.6985 39.1942 17.0352 39.5044 17.1811C39.7305 17.2874 39.834 17.3052 40.2244 17.3052C40.6188 17.3052 40.7176 17.2878 40.955 17.1765C41.2416 17.0422 41.616 16.6982 41.7431 16.4524C41.9297 16.0915 41.9635 15.847 41.9301 15.0989C41.782 11.7839 41.7108 11.1689 41.349 10.0826C40.5379 7.64754 38.4963 5.66168 36.0102 4.88984C35.1591 4.62555 34.51 4.54606 32.3524 4.44195C29.9758 4.32718 28.6672 4.30875 28.432 4.38661ZM11.7124 5.85762C10.3633 5.98875 9.42117 6.5241 8.93526 7.43571C8.45862 8.32995 8.31774 10.0038 8.61966 11.1852C9.03702 12.8184 10.2815 13.6327 12.3604 13.6327C14.7169 13.6327 15.9647 12.6253 16.2227 10.5145C16.3572 9.41451 16.2169 8.35246 15.8294 7.53723C15.6781 7.21894 15.5604 7.05522 15.294 6.79256C14.7317 6.23835 14.0367 5.95918 12.9663 5.85766C12.4107 5.80496 12.2545 5.80496 11.7124 5.85762ZM11.4244 17.1387C9.82936 17.402 8.93733 17.8402 7.91761 18.8616C7.36062 19.4194 6.97288 19.9675 6.64408 20.6616C6.3472 21.2883 6.00323 22.3752 6.00117 22.6932L6.00045 22.8012H12.3604H18.7204V22.6865C18.7204 22.5004 18.4918 21.6751 18.3095 21.2029C17.929 20.2178 17.4111 19.428 16.6951 18.7407C15.8433 17.9232 14.8665 17.422 13.7026 17.2051C13.2071 17.1128 11.8254 17.0725 11.4244 17.1387ZM34.3204 21.8656C31.7153 22.216 29.8033 23.6142 28.8732 25.8492C28.4398 26.8906 28.2324 28.3713 28.322 29.7852C28.4403 31.6532 28.9662 33.028 30.0325 34.257L30.2891 34.5528L29.9168 34.8145C28.5457 35.7785 27.3597 37.2722 26.6475 38.9321C26.0219 40.3901 25.6804 42.0366 25.6804 43.5951C25.6804 44.1525 25.6964 44.2963 25.7842 44.5314C25.9276 44.915 26.3667 45.3541 26.7503 45.4975L27.028 45.6012H35.6404H44.2528L44.5306 45.4975C44.9177 45.3528 45.3524 44.916 45.502 44.5212C45.6057 44.2476 45.6098 44.1878 45.5848 43.3212C45.4807 39.7176 43.8524 36.5064 41.219 34.7111L40.9896 34.5547L41.2874 34.21C42.4354 32.8814 42.9673 31.2764 42.9667 29.1423C42.9662 26.8545 42.3698 25.1696 41.0899 23.8399C39.9986 22.7061 38.6123 22.0652 36.7697 21.8424C36.2268 21.7768 34.8867 21.7895 34.3204 21.8656ZM35.2084 25.2332C34.4329 25.2804 33.7392 25.4747 33.202 25.795C32.2939 26.3365 31.8193 27.3148 31.7434 28.8012C31.6745 30.152 32.0081 31.3449 32.64 32.0074C33.264 32.6617 34.0637 32.9588 35.3395 33.0105C38.0567 33.1205 39.3905 31.9932 39.5345 29.4651C39.5699 28.8443 39.5004 28.1188 39.3549 27.5912C39.0965 26.654 38.6112 26.0455 37.8189 25.6657C37.5711 25.547 37.2219 25.4143 37.0427 25.3708C36.7395 25.2973 35.7619 25.1928 35.5444 25.2107C35.4916 25.215 35.3404 25.2251 35.2084 25.2332ZM7.21345 31.8992C6.73523 32.0279 6.33558 32.3793 6.10293 32.8755C5.98566 33.1256 5.97707 33.1883 5.98494 33.7383C6.01302 35.705 6.24813 36.9133 6.84539 38.1612C7.86659 40.2947 9.64869 41.8236 11.9099 42.506C12.7733 42.7665 13.3472 42.8327 15.6244 42.9344C18.7419 43.0736 18.7201 43.0732 19.0285 42.9925C19.5271 42.862 19.9501 42.5004 20.1759 42.0114C20.3261 41.6863 20.3257 40.9713 20.1751 40.6452C20.0182 40.3054 19.6335 39.9243 19.2929 39.7715C19.0239 39.6508 18.9362 39.6389 18.0103 39.5976C15.2708 39.4755 13.9087 39.4018 13.5604 39.3566C13.0998 39.2969 12.4367 39.0832 11.9995 38.8534C11.0813 38.3709 10.2018 37.3929 9.82144 36.4313C9.57001 35.7958 9.49139 35.3141 9.43005 34.0332C9.38032 32.9961 9.27496 32.6913 8.82213 32.2746C8.56998 32.0426 8.47499 31.9873 8.16985 31.8947C7.8891 31.8095 7.54038 31.8111 7.21345 31.8992ZM34.6084 36.5526C33.1729 36.7666 32.1955 37.254 31.1976 38.2536C30.5 38.9523 30.0619 39.6356 29.6837 40.6148C29.5079 41.0702 29.2804 41.8955 29.2804 42.0785V42.1932H35.6404C41.9006 42.1932 42.0004 42.1918 42.0004 42.1002C42.0004 41.7953 41.657 40.6924 41.3734 40.0869C40.9042 39.0847 40.0822 38.0937 39.2517 37.5288C38.8452 37.2524 38.0541 36.8853 37.5604 36.744C36.6811 36.4924 35.5179 36.417 34.6084 36.5526Z" fill="#CC554D"/>
</svg>
