<svg width="20" height="21" viewBox="0 0 20 21" fill="none" xmlns="http://www.w3.org/2000/svg">
<path d="M4.86791 10.7358C4.86792 9.8978 4.91028 9.06931 4.97045 8.25745H2.74459C2.32339 8.25745 2.09036 8.55743 2.09169 8.79944C2.10396 11.0428 2.15306 13.3299 2.28002 15.4582C2.32592 16.2257 2.99916 16.9223 3.96808 16.997H3.96738C4.81024 17.0608 5.6519 17.1189 6.49319 17.1665C8.14898 17.2602 10.4153 17.3193 12.1021 17.3193C13.3385 17.3193 14.5579 17.1796 15.7775 17.0235L15.9652 16.9921C16.8851 16.7984 17.5333 16.0847 17.6121 15.2985C17.7623 13.7984 17.9078 12.282 17.9078 10.7358C17.9078 8.82206 17.6856 6.96741 17.5081 5.12827C17.486 4.89912 17.274 4.64028 16.9068 4.59395C13.6054 4.17818 10.599 4.17818 7.29746 4.59395C6.93034 4.64028 6.7183 4.89909 6.69618 5.12827C6.51865 6.9674 6.2965 8.82206 6.29649 10.7358C6.29649 12.1046 6.41074 13.574 6.54132 15.0041C6.57708 15.3969 6.28749 15.7446 5.8947 15.7805C5.50187 15.8163 5.15421 15.5267 5.11833 15.1338C4.98729 13.6987 4.86791 12.1743 4.86791 10.7358ZM19.3364 10.7358C19.3364 12.3629 19.1834 13.9464 19.0336 15.4415C18.8753 17.0204 17.555 18.2364 15.9589 18.4409C14.7354 18.5975 13.4374 18.7478 12.1021 18.7478C10.3912 18.7478 8.09817 18.6877 6.41298 18.5923C5.55993 18.5441 4.7082 18.4857 3.85926 18.4214H3.85857C2.28122 18.2999 0.947856 17.1224 0.853545 15.5433C0.724435 13.379 0.67546 11.0635 0.663115 8.80712C0.656864 7.65731 1.65236 6.82888 2.74459 6.82888H5.09252C5.15258 6.20167 5.21627 5.58774 5.27389 4.99085C5.36848 4.01095 6.17845 3.29511 7.11889 3.17654C10.5389 2.74584 13.6654 2.74584 17.0854 3.17654C18.0259 3.2951 18.8358 4.01092 18.9304 4.99085C19.1036 6.78549 19.3364 8.73377 19.3364 10.7358Z" fill="white"/>
<path d="M15.472 12.6758C15.8664 12.6758 16.1862 12.9956 16.1862 13.3901C16.1862 13.7846 15.8664 14.1044 15.472 14.1044H8.67229C8.2778 14.1044 7.95801 13.7846 7.95801 13.3901C7.95801 12.9956 8.2778 12.6758 8.67229 12.6758H15.472Z" fill="white"/>
<path d="M15.472 9.6084C15.8664 9.6084 16.1862 9.9282 16.1862 10.3227C16.1862 10.7172 15.8664 11.037 15.472 11.037H8.67229C8.2778 11.037 7.95801 10.7172 7.95801 10.3227C7.95801 9.9282 8.2778 9.6084 8.67229 9.6084H15.472Z" fill="white"/>
<path d="M15.472 6.54004C15.8664 6.54004 16.1862 6.85984 16.1862 7.25432C16.1862 7.64881 15.8664 7.96861 15.472 7.96861H8.67229C8.2778 7.96861 7.95801 7.64881 7.95801 7.25432C7.95801 6.85984 8.2778 6.54004 8.67229 6.54004H15.472Z" fill="white"/>
</svg>
