<svg width="231" height="134" viewBox="0 0 231 134" fill="none" xmlns="http://www.w3.org/2000/svg">
<path d="M103.562 73.5863C98.0365 72.1321 78.2597 58.4628 62.5545 73.5863C46.8494 88.7098 19.22 121.865 4.969 114.012" stroke="#CC554D" stroke-width="8" stroke-linecap="round" stroke-dasharray="28 28"/>
<path d="M213.215 37.2109C214.625 37.802 217.655 39.4954 218.671 40.2592C221.586 42.4497 223.357 44.903 224.311 48.0697C224.742 49.4981 224.973 51.2576 224.909 52.6175C224.617 58.8535 220.359 65.5009 210.33 75.383C204.12 81.5018 194.206 90.0236 182.688 99.1443C173.467 106.446 167.223 110.275 161.741 111.99C155.579 113.918 150.089 113.411 144.906 110.437C141.195 108.308 138.508 105.73 135.51 101.424L134.579 100.087L132.967 100.485C129.206 101.415 128.524 101.559 127.449 101.659C125.559 101.835 123.659 101.497 121.805 100.658C117.214 98.5787 114.504 93.5806 115.276 88.6189C115.53 86.991 115.796 86.4065 119.414 79.5347L122.763 73.178L122.329 71.4377C121.021 66.1745 120.374 62.5503 119.898 57.8161C119.187 50.736 119.5 45.9112 120.943 41.7341C121.436 40.307 123.01 37.2474 123.776 36.2266C127.531 31.2241 132.887 28.5636 140.901 27.721C147.429 27.0346 154.975 27.3991 172.413 29.2418C192.332 31.3467 205.245 33.8687 213.215 37.2109ZM212.267 45.26C211.219 44.6875 209.983 44.0705 209.519 43.8879C201.038 40.5484 185.795 37.9865 161.251 35.7767C155.737 35.2801 153.214 35.12 149.67 35.0421C143.22 34.9002 139.635 35.2641 136.141 36.4138C133.389 37.3195 131.7 38.4619 130.087 40.5086C129.237 41.5871 128.172 43.8087 127.774 45.3334C126.878 48.7691 126.905 54.0117 127.855 60.5114C128.137 62.4468 128.775 65.8418 128.865 65.8888C128.9 65.9052 129.442 65.7561 130.071 65.5561C130.701 65.3555 133.441 64.5477 136.159 63.7619C149.834 59.8078 164.076 56.2685 178.09 53.3412C184.698 51.9609 192.046 50.5819 192.7 50.5993C193.268 50.6144 193.46 50.6751 194.239 51.0852C195.022 51.4981 195.176 51.6181 195.523 52.094C196.578 53.5425 196.497 55.5789 195.334 56.8641C194.482 57.8057 194.269 57.8767 189.586 58.7825C169.991 62.5727 154.272 66.3866 134.603 72.1222L130.607 73.2866L130.604 73.6583C130.598 74.5164 130.546 74.6289 126.632 82.1829C122.772 89.6335 122.76 89.6574 122.731 90.211C122.691 90.9825 123.068 92.0719 123.587 92.6837C123.921 93.0775 124.194 93.2804 124.855 93.63C126.15 94.3138 126.299 94.3013 131.226 93.0872C133.559 92.5123 135.701 92.0157 135.986 91.984C137.002 91.871 138.257 92.3133 138.998 93.0441C139.19 93.2327 139.711 93.971 140.157 94.6853C141.907 97.4877 143.749 99.8705 145.374 101.436C147.246 103.241 150.016 104.776 152.293 105.273C154.623 105.781 156.459 105.638 159.409 104.718C164.771 103.046 170.397 99.3606 182.249 89.7598C197.501 77.4042 206.555 69.0923 211.985 62.4603C214.011 59.987 214.561 59.1785 215.756 56.9146C217.018 54.5261 217.238 53.8657 217.297 52.2923C217.347 50.9592 216.841 49.2979 216.071 48.2637C215.122 46.9889 214.427 46.4404 212.267 45.26Z" fill="#CC554D"/>
<path d="M213.215 37.2109C214.625 37.802 217.655 39.4954 218.671 40.2592C221.586 42.4497 223.357 44.903 224.311 48.0697C224.742 49.4981 224.973 51.2576 224.909 52.6175C224.617 58.8535 220.359 65.5009 210.33 75.383C204.12 81.5018 194.206 90.0236 182.688 99.1443C173.467 106.446 167.223 110.275 161.741 111.99C155.579 113.918 150.089 113.411 144.906 110.437C141.195 108.308 138.508 105.73 135.51 101.424L134.579 100.087L132.967 100.485C129.206 101.415 128.524 101.559 127.449 101.659C125.559 101.835 123.659 101.497 121.805 100.658C117.214 98.5787 114.504 93.5806 115.276 88.6189C115.53 86.991 115.796 86.4065 119.414 79.5347L122.763 73.178L122.329 71.4377C121.021 66.1745 120.374 62.5503 119.898 57.8161C119.187 50.736 119.5 45.9112 120.943 41.7341C121.436 40.307 123.01 37.2474 123.776 36.2266C127.531 31.2241 132.887 28.5636 140.901 27.721C147.429 27.0346 154.975 27.3991 172.413 29.2418C192.332 31.3467 205.245 33.8687 213.215 37.2109ZM212.267 45.26C211.219 44.6875 209.983 44.0705 209.519 43.8879C201.038 40.5484 185.795 37.9865 161.251 35.7767C155.737 35.2801 153.214 35.12 149.67 35.0421C143.22 34.9002 139.635 35.2641 136.141 36.4138C133.389 37.3195 131.7 38.4619 130.087 40.5086C129.237 41.5871 128.172 43.8087 127.774 45.3334C126.878 48.7691 126.905 54.0117 127.855 60.5114C128.137 62.4468 128.775 65.8418 128.865 65.8888C128.9 65.9052 129.442 65.7561 130.071 65.5561C130.701 65.3555 133.441 64.5477 136.159 63.7619C149.834 59.8078 164.076 56.2685 178.09 53.3412C184.698 51.9609 192.046 50.5819 192.7 50.5993C193.268 50.6144 193.46 50.6751 194.239 51.0852C195.022 51.4981 195.176 51.6181 195.523 52.094C196.578 53.5425 196.497 55.5789 195.334 56.8641C194.482 57.8057 194.269 57.8767 189.586 58.7825C169.991 62.5727 154.272 66.3866 134.603 72.1222L130.607 73.2866L130.604 73.6583C130.598 74.5164 130.546 74.6289 126.632 82.1829C122.772 89.6335 122.76 89.6574 122.731 90.211C122.691 90.9825 123.068 92.0719 123.587 92.6837C123.921 93.0775 124.194 93.2804 124.855 93.63C126.15 94.3138 126.299 94.3013 131.226 93.0872C133.559 92.5123 135.701 92.0157 135.986 91.984C137.002 91.871 138.257 92.3133 138.998 93.0441C139.19 93.2327 139.711 93.971 140.157 94.6853C141.907 97.4877 143.749 99.8705 145.374 101.436C147.246 103.241 150.016 104.776 152.293 105.273C154.623 105.781 156.459 105.638 159.409 104.718C164.771 103.046 170.397 99.3606 182.249 89.7598C197.501 77.4042 206.555 69.0923 211.985 62.4603C214.011 59.987 214.561 59.1785 215.756 56.9146C217.018 54.5261 217.238 53.8657 217.297 52.2923C217.347 50.9592 216.841 49.2979 216.071 48.2637C215.122 46.9889 214.427 46.4404 212.267 45.26Z" stroke="#F1F5F9"/>
</svg>
