<svg width="18" height="18" viewBox="0 0 18 18" fill="none" xmlns="http://www.w3.org/2000/svg">
<path d="M9 0.799805C9.55223 0.799805 9.99989 1.24762 10 1.7998V8H16.2002C16.7524 8.00011 17.2002 8.44777 17.2002 9C17.2002 9.55223 16.7524 9.99989 16.2002 10H10V16.2002C9.99989 16.7524 9.55223 17.2002 9 17.2002C8.44777 17.2002 8.00011 16.7524 8 16.2002V10H1.7998C1.24762 9.99989 0.799805 9.55223 0.799805 9C0.799805 8.44777 1.24762 8.00011 1.7998 8H8V1.7998C8.00011 1.24762 8.44777 0.799805 9 0.799805Z" fill="#45556C" stroke="#45556C" stroke-width="0.4"/>
</svg>
